<?xml version="1.0" encoding="UTF-8" standalone="no"?>
<svg id="svg3336" xmlns:rdf="http://www.w3.org/1999/02/22-rdf-syntax-ns#" xmlns="http://www.w3.org/2000/svg" version="1.1" xml:space="preserve" height="5.35e3" viewBox="0 0 7147.7366 5349.7849" width="7.14e3" enable-background="new 0 0 595.28 841.89" y="0px" x="0px" xmlns:cc="http://creativecommons.org/ns#" xmlns:dc="http://purl.org/dc/elements/1.1/"><g id="g4137" fill="#fff578" transform="translate(2.43e3 2.41e3)">
  <path id="path3342" d="m268 2.06e3 -4.5-47-14.5-39v-49.5l19-41-16.5-39.5v-34l7-9 9.5-90.5-102 11.5-55 34.5s-84-7-101-5-21 2-21 2l-49-23s-41-5.5-43-4.5l-2 1s-21 35-25 37l-4 2s-69 45-83 49-49 8-49 8l-43 22.5-21.5 1-15 8-57-1-36.5-9.5-9 47.5 6 14-1.5 11 5.5 37 18.5 33-4 41 36.5 19.5 25.5 27 6 43 25.5 30.5 40.5-15 39.5 0.5 38.5-8.5 43.5 7.5 17.5-36 88.5-59 61-8 74.5 28 159-18 36 21z"/>
  <path id="path3344" d="m-982 2.24e3 129 38.7 73.3-6.67 63.3 6.67 59.3-22.7 62.7-16 62-22.7 62.7-16-20-42-23.3-16-18-35.3-2-34.7-44.7-36.7s-66-27.3-91.3-24.7c-25.3 2.67-28.7 0-28.7 0l-44.7-31.3-31.3 31.3-26 23.3-116 58.7-61.3 61.3-11.3 40.7 6.67 44z"/>
  <path id="path3346" d="m-1.13e3 2.01e3 -45.3-10.7-45.3 5.33-48.7-8-75.8 26-60.9-4-46.7 8-43.3-16.7-49.3 16.7-39.3 31.3-46 12.7h-48.7l-53.3 126-4 65.3-18.7 64.7 13.3 40.7 28 28.7 37.3 12 26 26 15.3 78 25.3 30.7 1.33 40.7 42.7 18.7 40.7 7.33 23.3 29.3 65.3 50.7 49.3 10.7 32.7-5.33 93.3 28.7 34 36 41.3 20 40 38.7 49.3-24.7 52 4 63.3 20.7 34 16.7 62.7-4 100 16 48.7 35.3 29.3 39.3 57.3 20 105-24s65.3 32.7 105 24c0 0 40.7-27.3 92.7-34 52-6.67 102-20.7 115-20.7 12.7 0 92.7 17.3 92.7 17.3l108-3.33 40.7-19.3 36.7-5.33 26-32 34-18.7 44-3.33 33.3-16.7 38 22 42 8.67 50 38 131 23.3 77.3 3.33 68.7-14 64-2 52-45.3s126-21.3 187-63.3c0 0 86-8 122-17.3l80 3.33 60.7-20 68.7 8 59.3 20s59.3-9.33 68.7-11.3c9.33-2 16-4.67 16-4.67l40.7-24.7s26.7-43.3 43.3-53.3c16.7-10 53.3-30.7 53.3-30.7s-12.7-100-26-123c-13.3-22.7-42.7-78-43.3-82-0.667-4-0.001 2-0.667-4s-18.3-69.7-54-95.3c-40-28.7-98.7-20.7-98.7-20.7l-51.3-12-78.7 1.33-85.3-6.67-59.3 34.7-115 4.67-54.7 32-136 32-53.3 42.7-133 6s-76-39.3-88.7-43.3-69.3-30.7-86-32.7-102-22-122-20-73.3 28.7-73.3 28.7l-86.7 8.67-48 10-39.3 1.33-92.7 32-48-1.33-46.7 14s-30.7 4-56 6-37.3-0.666-37.3-0.666l-41.3 17.3s-56 54.7-68 68c0 0-70 39.3-144 58.7l-79.3 10.7-40.7 33.3-45.3 19.3-36.7-24s-43.3-9.33-52.7-6.67c-9.33 2.67-84 16.7-115 12 0 0 26-8.67 38-18.7s22-44 22-44l42.7-15.3 33.3 5.33 30-36 38-20.7-6-65.3-32.7-60.7-59.3 1.33-66-19.3-75.3-18.7-41.3 33.3-66 18-93.3-14.7-5.33-45.3 16-50-18-96.7v-56l-8-42.7 50-90.7z"/>
  <path id="path3348" d="m1.55e3 1.45e3s14.7-59 15.3-66c0.666-7-20.7-67.7-20.7-67.7l-37.3 15.3-15.2 5.5-73.5 10.5-102-5.5-39-25.5-52 12-39.5 18-41.5 32.5-76 17.5-74.5-17.5-43 45-101 40.5-63 30.5-15.8 3.49c7 10 3 10 3 10l-32.5 49-39 21-5 31.5-102 84 3.5 49.5s8.5 32.5 18 78c19.6 94.1 69.2 140 74.5 144 5.33 4 87.3 45.3 87.3 45.3l55.7-10.7 44-22.3 52 1.33 51.3-24.3 152-23.7 49.7 16 103-85.7 32.7-57 48-48.7c21-1.67 86.3-29 86.3-29l4.33-1.67c4.33-1.67 50.7-3.33 50.7-3.33s38.7-27.3 40.7-30.3 6.67-36.7 6.67-36.7 66.3-81.7 66.3-89.7-68.7-120-68.7-120z"/></g><g id="g4143" fill="#82a028" transform="translate(2.43e3 2.41e3)">
  <polygon id="polygon3350" points="-2.08e3 2e3 -2.09e3 2.03e3 -2.13e3 2.01e3 -2.16e3 2e3 -2.21e3 1.92e3 -2.15e3 1.88e3 -2.13e3 1.85e3 -2.09e3 1.83e3 -2.07e3 1.87e3 -2.04e3 1.89e3 -2.05e3 1.93e3 -2.08e3 1.96e3"/>
  <polygon id="polygon3352" points="-1.63e3 1.76e3 -1.67e3 1.77e3 -1.74e3 1.75e3 -1.81e3 1.76e3 -1.85e3 1.76e3 -1.85e3 1.8e3 -1.82e3 1.82e3 -1.79e3 1.83e3 -1.72e3 1.89e3 -1.66e3 1.87e3 -1.65e3 1.85e3 -1.59e3 1.81e3 -1.58e3 1.78e3"/>
  <polygon id="polygon3354" points="-2.33e3 1.66e3 -2.31e3 1.62e3 -2.34e3 1.59e3 -2.32e3 1.56e3 -2.29e3 1.57e3 -2.26e3 1.56e3 -2.22e3 1.57e3 -2.17e3 1.56e3 -2.15e3 1.6e3 -2.16e3 1.64e3 -2.19e3 1.68e3 -2.25e3 1.7e3"/>
  <polygon id="polygon3356" points="-1.83e3 1.64e3 -1.82e3 1.59e3 -1.75e3 1.53e3 -1.76e3 1.51e3 -1.81e3 1.5e3 -1.83e3 1.47e3 -1.86e3 1.47e3 -1.93e3 1.48e3 -1.95e3 1.49e3 -1.98e3 1.53e3 -2.03e3 1.55e3 -1.99e3 1.57e3 -1.97e3 1.61e3 -1.91e3 1.64e3 -1.84e3 1.68e3"/>
  <polygon id="polygon3358" points="-1.58e3 1.61e3 -1.53e3 1.57e3 -1.57e3 1.5e3 -1.64e3 1.48e3 -1.65e3 1.45e3 -1.68e3 1.44e3 -1.71e3 1.48e3 -1.71e3 1.51e3 -1.72e3 1.52e3 -1.72e3 1.54e3 -1.75e3 1.58e3 -1.79e3 1.63e3 -1.75e3 1.62e3 -1.72e3 1.63e3 -1.68e3 1.61e3 -1.63e3 1.61e3"/>
  <polygon id="polygon3360" points="-1.75e3 1.33e3 -1.71e3 1.29e3 -1.67e3 1.23e3 -1.69e3 1.17e3 -1.68e3 1.16e3 -1.71e3 1.1e3 -1.74e3 1.1e3 -1.77e3 1.12e3 -1.8e3 1.12e3 -1.84e3 1.13e3 -1.87e3 1.17e3 -1.85e3 1.2e3 -1.85e3 1.24e3 -1.82e3 1.29e3 -1.8e3 1.31e3"/>
  <polygon id="polygon3362" points="-2.03e3 1.24e3 -2.06e3 1.17e3 -2.04e3 1.11e3 -2.06e3 1.03e3 -2.11e3 1.03e3 -2.17e3 1.02e3 -2.21e3 993 -2.25e3 1e3 -2.35e3 1.02e3 -2.37e3 1.04e3 -2.4e3 1.04e3 -2.37e3 1.09e3 -2.39e3 1.16e3 -2.41e3 1.24e3 -2.32e3 1.29e3 -2.31e3 1.34e3 -2.28e3 1.38e3 -2.23e3 1.35e3 -2.16e3 1.36e3 -2.1e3 1.33e3 -2.04e3 1.31e3"/>
  <polygon id="polygon3364" points="-1.85e3 836 -1.86e3 721 -1.87e3 666 -1.86e3 615 -1.91e3 523 -1.93e3 516 -1.94e3 516 -1.95e3 571 -1.94e3 608 -1.99e3 659 -1.99e3 769 -1.97e3 808 -1.99e3 864 -1.97e3 930 -1.95e3 970 -1.91e3 1.01e3 -1.86e3 980 -1.8e3 931 -1.84e3 887 -1.84e3 855"/>
  <path id="path3366" d="m-2.42e3 655h44l22-8 36 13 64-18 36 18 58 6 35-18 20-50-14-31 51-71 55-65 40-15 24-32-6-42 18-44s-32.7-68.7-32.7-79.3c-10-11 0-87 0-87l24-46.7 29.3-21.3 57.3-72.7v-28l22-68.7 16.7-82.7v-40.7s-28-62.7-34.7-72.7l-4-42s12-38.7 11.3-44.7l-0.667-6-9.33-32s16.7-56.7 26.7-70 43.3-48.7 47.3-60l-56.7 17.3-32.7-6-22.7-3.33-46-23.3h-67.3l-9.33 36.7-21.3 28 2 32.7-23.3 81.3-2.67 34-9.33 39.3 11.3 40s-43.7 46.7-44.5 58.7c-0.833 12-18.8 77.3-18.8 77.3s-40 48.7-49.3 52l-30 70s16 58 17.3 82.7c1.33 24.7-13.3 94.7-14 105-0.667 10.7-4.67 97.3-4.67 97.3s-46.7 70-49.3 80c-2.67 10-6.67 44.7-6.67 44.7l-22.7 39.3-36.7 32-13.3 44s-34.7 48.7-35.3 57.3c-0.666 8.67-4.67 20.7-4.67 20.7s-38.7 25.3-42 32c-3.33 6.67-12.3 41-12.3 41z"/>
  <polygon id="polygon3368" points="-1.75e3 -1.05e3 -1.75e3 -1.1e3 -1.84e3 -1.13e3 -1.92e3 -1.13e3 -1.99e3 -1.16e3 -2.02e3 -1.21e3 -2.09e3 -1.2e3 -2.18e3 -1.13e3 -2.2e3 -1.06e3 -2.18e3 -983 -2.16e3 -895 -2.13e3 -841 -2.03e3 -826 -1.94e3 -876 -1.86e3 -899 -1.81e3 -987"/>
  <polygon id="polygon3370" points="-1.29e3 -1.42e3 -1.27e3 -1.39e3 -1.25e3 -1.38e3 -1.21e3 -1.38e3 -1.18e3 -1.41e3 -1.12e3 -1.44e3 -1.1e3 -1.47e3 -1.08e3 -1.49e3 -1.06e3 -1.52e3 -1.05e3 -1.59e3 -1.11e3 -1.64e3 -1.17e3 -1.65e3 -1.23e3 -1.7e3 -1.35e3 -1.69e3 -1.42e3 -1.64e3 -1.43e3 -1.61e3 -1.5e3 -1.61e3 -1.53e3 -1.53e3 -1.54e3 -1.49e3 -1.51e3 -1.45e3 -1.47e3 -1.43e3 -1.43e3 -1.44e3 -1.36e3 -1.43e3 -1.32e3 -1.43e3"/>
  </g><polygon id="polygon3372" points="-429 -1.86e3 -386 -1.84e3 -351 -1.78e3 -324 -1.75e3 -281 -1.72e3 -236 -1.69e3 -182 -1.72e3 -83 -1.73e3 -39.7 -1.77e3 5 -1.75e3 44.3 -1.76e3 96.3 -1.74e3 153 -1.73e3 200 -1.78e3 237 -1.85e3 264 -1.9e3 276 -1.94e3 320 -1.96e3 351 -2e3 382 -2e3 406 -1.97e3 481 -1.95e3 552 -1.94e3 601 -1.95e3 653 -1.96e3 744 -1.96e3 796 -1.97e3 851 -2e3 887 -1.97e3 928 -1.97e3 970 -1.99e3 1.01e3 -1.98e3 1.05e3 -1.97e3 1.07e3 -1.96e3 1.14e3 -1.94e3 1.18e3 -1.98e3 1.21e3 -2.01e3 1.32e3 -2.02e3 1.37e3 -2.06e3 1.43e3 -2.07e3 1.43e3 -2.11e3 1.4e3 -2.19e3 1.38e3 -2.25e3 1.38e3 -2.3e3 1.41e3 -2.34e3 1.38e3 -2.37e3 1.28e3 -2.4e3 1.2e3 -2.37e3 1.14e3 -2.4e3 1.09e3 -2.38e3 1.02e3 -2.4e3 966 -2.4e3 852 -2.41e3 766 -2.37e3 709 -2.35e3 648 -2.36e3 598 -2.39e3 528 -2.4e3 416 -2.4e3 360 -2.39e3 306 -2.39e3 227 -2.4e3 124 -2.37e3 30.3 -2.39e3 -12.3 -2.35e3 -29 -2.31e3 -110 -2.27e3 -200 -2.3e3 -282 -2.27e3 -318 -2.3e3 -394 -2.31e3 -478 -2.22e3 -475 -2.18e3 -494 -2.15e3 -552 -2.1e3 -512 -2.05e3 -490 -2.01e3 -502 -1.96e3 -465 -1.92e3" fill="#8c96a0" transform="translate(2.43e3 2.41e3)"/><g id="g4157" fill="#82a028" transform="translate(2.43e3 2.41e3)">
  <path id="path3374" d="m2.42e3 -440 41.8-9.34 42-34.5 62.5-16.5 43.5 7 71 19.5s46.5 1.5 87-23.5l8.5-26 20.5-15-3-25.5 25.5-50.5 21.5-12-2.5-83.5-27-59h-67l-36.5 24.5-73-4-56 20-46-2.5-43.5 43-74.5 35.5-71 3-59 58.5-2.5 52.5 31.5 64 88.5 20 17.7 14.3z"/>
  <path id="path3376" d="m2.82e3 229 40 11 33.5 20.5 16 37 32 24.5 28.5-34 33.5-12.7 29-40.8 11.5-69 30.5-49.5s-20.5-39-17-57.5 7-50.5 7-50.5l-40.5-77.5-42-47.5-34.7-9.5-27.3-11.5s-57.5-27.5-67.5-27.5-40 12.5-40 12.5l-43 26.5-51 66.5 19.5 40.5-14.5 58 12.5 12 3 25.5 35.5 24 42 79 7 24-3.33 25.7z"/>
  <path id="path3378" d="m2.31e3 826 29.5-4.5 36 7.5 19.5 7.5 25-5s51.5-17.5 59.5-33v-31l11.5-20.5-15.5-24-1.5-29-22.5-18.5 6.5-28.5-31.5-27.5-48 7.5-25.5-15-55.5 11-40 40-38.5 19 3.5 27.5 29.5 40 21.5 11 1 18 15 7.5 4 17 16.5 23z"/>
  <path id="path3380" d="m2.62e3 978 31.5-11.5s36.5-24.5 83-23.5l26.5 17.5 49-3.48 39.5 21 55.5-42 36-10.5 8.5-59-34-23-10-97-33.5-21.8-60.5 20.8-76-4.5-36.5-0.5-37.5 17.5-41.5 48.5v30.5l-20.5 34.5-2.5 22 21 38 2 46.5z"/>
  <polygon id="polygon3382" points="2.77e3 1.44e3 2.81e3 1.44e3 2.81e3 1.42e3 2.83e3 1.42e3 2.86e3 1.39e3 2.87e3 1.39e3 2.9e3 1.3e3 2.88e3 1.25e3 2.8e3 1.24e3 2.73e3 1.22e3 2.64e3 1.2e3 2.59e3 1.22e3 2.51e3 1.24e3 2.51e3 1.27e3 2.53e3 1.29e3 2.51e3 1.34e3 2.55e3 1.37e3 2.57e3 1.39e3 2.56e3 1.42e3 2.61e3 1.45e3 2.64e3 1.44e3 2.67e3 1.42e3 2.7e3 1.43e3 2.73e3 1.42e3"/>
  </g><g id="g4164" transform="translate(2.43e3 2.41e3)"><path id="path3384" fill="#c8c8c8" d="m2.41e3 -204c-45.3 16-141 24-136 144 5.5 120-100 196-98.5 258 2 62 14 168 146 240s142-42 246-40 148-74 122-152c-20-78-120-96-110-168 0-72 20-160 0-214-30-54-128-80-162-68z"/>
  <path id="path3386" fill="#82a028" d="m573 1.43e3c78.3 7.67 160 52.7 184 59.7 9.62 2.81 13.6 7.59 14.8 12.3l15.8-3.49 63-30.5 101-40.5 43-45 74.5 17.5 76-17.5 41.5-32.5 39.5-18 52-12 39 25.5 102 5.5 73.5-10.5 15.2-5.5 9-51.3-19-46.7 2-25.3-10.7-23.3c15-26.3 20.3-48 20.3-48v-21.7l16.3-20.7 5.67-25.7 20.3-15.3s3-8 4-13.3c3.87-20.7 10-35-8.33-42.3-10.6-4.23-16.7-45.7-16.7-45.7-36.7-20.7-112-90.7-112-90.7 0-40.3-26-58-26-58s-86.3-17.7-99.7-23.3c-13.3-5.67-34.2-78.4-34.2-78.4l-16.8-28-3.75-33.2-20.2-36-0.25-39.5-13.2-33.8s20.5-42.5 31-59.5 20.5-47.5 20.5-47.5l-5-39.5 35.8-6 34-16.8s15.8-21.5 22-28.5c6.25-7 35.2-31.8 35.2-31.8l2.75-33.5c4.75-13 33.2-57 33.2-57l28.2-27.5s5-8 8.75-21 20.5-30.2 20.5-30.2l1-6 28.2-32.2 8.75-33.5c9.75-14 55.8-44 55.8-44s13-16.8 20.5-24.2c7.5-7.5 31.2-25 31.2-25l9.25-35.2-15.8-69.8 10-31.2s-1.75-38.5-6.25-50.5-2-46-2.25-54.8c-0.25-8.75-8-36-8-36s4.5-19.8 5.25-30.5c0.75-10.8 8.25-41.8 8.25-41.8 8.5-7.25 43-54.8 43-54.8l19.5-39c-3.5-14.8-2.75-77.8-2.75-77.8l-21-19.5s-6.75-22.8-4.75-34 20.8-27.5 20.8-27.5-5.5-15.8-2.25-23.8 15.5-23.2 15.5-23.2l-11.5-26.2 2.5-29.8 12.5-21.2 23.5-73.8c4.75-12 42-63.5 42-63.5l4.25-40.5s-36-25-45.5-28.2c-9.5-3.25-44.5-11-44.5-11l-22.2 22.5-30 46-55 3.75-31.3 10.7-26.5-1.82 5.67-27.2-8.4-27c5.67-16.6 24.1-43.6 24.1-43.6s-13.2-57.4-12.9-62.9c0.226-5.45 6.58-41.3 6.58-41.3-21.6-4.54-128 6.58-128 6.58l-34.9 25.6 2.04 60.6-10.2 10.4 1.82 28.4v2.72c0 2.72 22.7 40.4 22.7 40.4l3.4 22.5-67.4 4.08-59.7-14.5-3.63-27.9 6.81-20.9c-4.77-19.3-24.5-40.6-24.5-40.6l3.63-27.5-11.8-22.9 8.4-21.3v-26.1l-22.5-12.9-21.8 1.59-31.8-0.681s-20.9 9.98-23.4 12.7-5.9 18.4-5.9 18.4l1.59 25-2.04 25.4 12 21.1 4.08 22.7-6.13 25.4-25.9 36.8-34.9 2.04-28.4 9.3c-4.31-7.94-9.53-53.1-9.53-53.1l-21.8-19.5-8.17-26.5 13.6-26.5s2.72-39 1.14-46.3c-1.59-7.26-18.8-34.7-18.8-34.7l-18.6 4.99-18.8-5.67c-15.9 10.4-21.1 23.1-21.1 23.1-2.95 9.53-17.9 34.5-17.9 34.5l-2.04 25.6 6.13 20.9 0.227 24.7c1.59 2.27 4.31 23.1 3.86 25-0.455 1.82 7.72 19.1 7.72 19.1-6.35 1.36-48.6 32.4-48.6 32.4-5.44-0.227-17.9-19.5-17.9-19.5l-2.27-27.2c-4.08-3.4-24.7-8.85-24.7-8.85l-16.1-24.1 7.94-23.4c-0.454-4.08 4.08-26.8 4.08-26.8l-7.71-25.6c-3.86-6.35-19.3-19.7-19.3-19.7-0.682-2.72 5.67-29.7 5.67-29.7-2.72-4.76-28.1-20.4-37.9-24.5-9.76-4.08-37.4 2.5-44 6.13-6.58 3.63-17.5 4.08-17.5 4.08l1.14 30.2 5.67 27.9c-3.4 19.3-18.2 54.9-18.2 54.9l-22 14.1-22.9 23.4-0.908 30.4-31.8 44.7-24.5 41.8 3.4 40.4-18.2 33.4-6.13 26.8-16.3 13.2-34.3 44.2-26.5-16.8-34.5-3.4-72.4 18.4 1.13-40.2-11.8-35.4 3.86-38.1c0.228-3.86-12.9-39.3-12.9-39.3-16.6-12-53.6-32.7-53.6-32.7l-25.9-11.1-32.4-20.6c-17.4 16.1-67.3 33.6-90.6 44.3s-78.3 64.3-78.3 64.3l-21.7 31-15.3 7.67-19 15.7-22-8.67c-16-2-45 12-57.3 15s-31.3 25-31.3 25-20.3 3.67-29 7c-8.67 3.33-45 3.33-45 3.33l-33 5-5-41.7-12.7-8.33-2-8.33-13.3-10 28.3-73.7 35.3-20 22-35-17-37-0.667-42c16-20.7 33-73 33-73l-17-20-67-30-12-20-21.3-13-7.67-17.7c-54.3 0.667-138-33.7-138-33.7l-31 5-24 22.3-51.7 40-20 58.3-15.7 23.3-7.33 28.7-19.3 21-75.3 49.7s-14 43-27.3 48c0 0-13.3 6.67-22.7 8-9.33 1.33-31.3 20-31.3 20l-16.3 26-16 13s5.33 2.67 13.7 5.33c8.33 2.67 22.3 14 22.3 14l22.7-4-0.335 9.33-48 8.67-62.7-20.3-26-13-39-32-50-1-39-27.7-30.7-38.3-95 17-31.7 37.3s-21 5.67-45.3 9-52 1.67-52 1.67l-45.3-9.33-72.3 19c-2 6.33 2.33 38 2.33 38l-11 28.3v36l-20.7 24-6.33 27.7s-0.667 11.3 1.33 28.3 0 40.7 0 40.7l10.7 33.7 27.3 20 6 36-9 37.3v25.3l-5.67 30.7v35.3l-16.3 28.7 22.3 23.7 14.3 31.3 33.7 12 22.3 24-0.333 34.7 10.7 33 17 15.3 19.3 39 0.667 34.7 10.3 33.7s42.7 75.3 44 88c1.33 12.7-14.3 51-15 62.3-0.667 11.3 42.7 101 42.7 101l-0.667 44.3s2.67 0.667 7.67 11.3c5 10.7 42 9 42 9l60 38s12 21 15 29.3c3 8.33 22.7 25.3 23.7 29.3s-6 118-6 118l-31 38.8s0 43.3 5.33 65.3 38 76 38 76l-23 69.7-28.7 8.67-40 56-65.7 53-37.7 95s2 52.7 1.33 56c-0.667 3.33 20.3 51 20.3 51-1 13.7 4 49 4 49s-22.3 57-37 87-35.7 50.3-35.7 50.3v52.7l-34.3 39.3-11.7 48 14 23.7 24.7 13.7 6.67 26.3 17 18.3 13 23.7 1.33 30 10 9.33c11.7 19.3 56 43.7 56 43.7 4 19.3 47.3 61 47.3 61l13.3 28.3 25 11.7c9 12.7 16.3 52 16.3 52 40-9.67 88.7-44.7 88.7-44.7l66.7 2.67 30.7-8.67 33.3 4 32.3-4.67s47.3-15 50-16.7c2.67-1.67 11.7-6.33 24.3-9.33 12.7-3 45.7-14.7 45.7-14.7l39.7 3.67 28.3 14 32-15 34.3 7 25.3-9.33 17.3-24.7 17.7-2.33c3.67 1 28-16.3 28-16.3 10.3-4.67 27-5 27-5 10-2.33 39.3-40 39.3-40l5.33-22.3 17.3-25.7 48-25 25-48c2-6.67-3.67-29.7-3.67-29.7l16.3-25.3 24-13.7 26 4.33 21 18.7c35-14.3 74.3-7.33 74.3-7.33 6.67 0.333 69-29.3 69-29.3l34 15 19 31.3 31.3 17 30.7 64.7v38.3l52.7 47.3 47-20 68-10 67 10 63.7-18.3 128 17 63.3-26.3z"/>
  <rect id="rect3417" height="241" width="319" y="-1.08e3" x="4.38e3" fill="#82a028"/>
  <rect id="rect3417-0" height="241" width="319" y="-721" x="4.39e3" fill="#fff578"/>
  <rect id="rect3417-0-5" height="241" width="319" y="-369" x="4.4e3" fill="#8c96a0"/>
  <rect id="rect3417-0-5-7" height="241" width="319" y="-27.6" x="4.39e3" fill="#c8c8c8"/>
</g></svg>
