<?xml version="1.0" encoding="UTF-8" standalone="no"?>
<!-- Generator: Adobe Illustrator 16.0.0, SVG Export Plug-In . SVG Version: 6.00 Build 0)  -->
<svg 
	xmlns:xlink="http://www.w3.org/1999/xlink"
	xmlns:rdf="http://www.w3.org/1999/02/22-rdf-syntax-ns#" 
	xmlns="http://www.w3.org/2000/svg" version="1.1" xml:space="preserve" height="980px" viewBox="0 0 980 980" data-view-box="{{ ngViewBox }}" width="980px" y="0px" x="0px" 
	xmlns:cc="http://creativecommons.org/ns#" 
	xmlns:dc="http://purl.org/dc/elements/1.1/">
	<rect x="-2642.3606" y="-2517.0708" stroke-miterlimit="10" width="5878.0166" height="5878.0166" id="rect4137" style="fill:none;stroke:#000000;stroke-width:1.98363054;stroke-linejoin:round;stroke-miterlimit:10" />
	<image xlink:href="fondcarte.jpg" width="5880" height="5880" preserveAspectRatio="none" id="image4188" x="-2642.1672" y="-2517.3467" />
	<path id="path4183" style="fill:#ffffff;fill-opacity:0.5;stroke:#000000;stroke-width:4.99831295;stroke-miterlimit:4;stroke-dasharray:none" d="m 2385.9438,-51.634946 c -45.3267,15.997601 -140.9525,23.991902 -135.4543,143.951417 5.4981,119.959519 -100.4661,195.933869 -98.4668,257.912959 1.9993,61.97908 13.9953,167.94332 145.9508,239.91903 131.9554,71.9757 141.952,-41.98583 245.917,-39.98651 103.9649,1.99933 147.95,-73.97504 121.9588,-151.94872 -25.9912,-77.97369 -119.9595,-95.46778 -115.9609,-167.6934 3.9987,-72.22563 27.9906,-160.195936 -1.9993,-214.177718 -29.9899,-53.981781 -127.9568,-79.97301 -161.9453,-67.977058 z m 255.0669,1622.509446 33.5737,9.092 30.0768,-9.092 36.3718,21.6827 37.0714,-4.1966 5.5952,-13.2895 20.2841,-4.1966 24.4818,-31.4763 12.5897,0 33.5737,-86.033 -23.782,-47.563 -73.4422,-9.0929 -79.0383,-29.3771 -89.5308,-11.1912 -47.563,17.4861 -78.3385,18.8856 0,33.5747 22.3824,16.7863 -18.1869,47.563 38.4711,27.9785 12.5897,23.781 -9.0919,32.1751 50.36,23.782 35.6719,-11.1922 z m -46.1375,-441.4081 31.4894,-11.4961 c 0,0 36.4877,-24.4918 82.972,-23.4921 l 26.4911,17.4791 48.9834,-3.4838 39.4867,20.9929 55.4813,-41.9858 35.9878,-10.4965 8.4972,-58.9801 -33.9886,-22.99218 -9.9966,-96.96727 -33.4887,-21.74266 -60.4796,20.74299 -75.9743,-4.49848 -36.4877,-0.49983 -37.4874,17.4941 -41.486,48.48363 0,30.48971 -20.493,34.48829 -2.4992,21.9926 20.9929,37.9872 1.9993,46.4843 z m -307.3962,-151.44885 29.49,-4.49848 35.9879,7.49747 19.4934,7.49747 24.9916,-4.99831 c 0,0 51.4826,-17.4941 59.4799,-32.98887 l 0,-30.98954 11.4961,-20.49308 -15.4947,-23.9919 -1.4995,-28.99023 -22.4924,-18.49375 6.4978,-28.49039 -31.4894,-27.49072 -47.9838,7.49747 -25.4914,-14.99494 -55.4813,10.99629 -39.9865,39.9865 -38.487,18.99359 3.4988,27.49073 29.4901,39.98651 21.4927,10.99628 0.9997,17.99393 14.9949,7.49747 3.9987,16.99426 16.4944,22.99224 z m 500.9979,-597.13147 39.8196,11.32918 33.4887,20.49308 15.9946,36.98752 31.9892,24.49173 28.4904,-33.98853 33.4887,-12.66172 28.9903,-40.82022 11.4961,-68.97673 30.4897,-49.4833 c 0,0 -20.4931,-38.98684 -16.9943,-57.4806 3.4988,-18.49375 6.9977,-50.48296 6.9977,-50.48296 l -40.4864,-77.473853 -41.9858,-47.483975 -34.6544,-9.496796 -27.3248,-11.496119 c 0,0 -57.4806,-27.490723 -67.4772,-27.490723 -9.9966,0 -39.9865,12.49578335 -39.9865,12.49578335 l -42.9855,26.49105865 -50.9828,66.477565 19.4934,40.486329 -14.4951,57.98044 12.4958,11.99595 2.999,25.4914 35.488,23.9919 41.9858,78.97334 6.9977,23.99191 -3.3319,25.65834 z m -400.2969,-668.60335 41.7509,-9.33485 41.9858,-34.48836 62.479,-16.49443 43.4853,6.99764 70.976,19.49342 c 0,0 46.4843,1.49949 86.9707,-23.49207 l 8.4971,-25.99124 20.4931,-14.99494 -2.999,-25.49139 25.4914,-50.48296 21.4927,-11.99595 -2.4991,-83.47184 -26.9909,-58.98009 -66.9774,0 -36.4877,24.49173 -72.9754,-3.99865 -55.9811,19.99326 -45.9844,-2.49916 -43.4854,42.9855 -74.4748,35.48802 -70.9761,2.99899 -58.9801,58.48026 -2.4991,52.48228 31.4894,63.97842 88.4701,19.99325 17.729,14.33316 z m -2904.24089,-1566.49543 -12.05493,48.2248 37.17245,39.1827 36.1688,57.2667 42.99849,25.1205 34.6543,52.6493 26.65801,39.3197 43.31838,25.3245 45.31871,25.3254 53.315,-27.9905 99.30049,-9.3309 43.318386,-35.3211 44.651931,12.6628 39.319731,-2.6661 51.982458,21.9925 56.647884,8.6641 46.65026,-49.3173 37.3214,-77.306 26.65801,-42.3037 11.99595,-43.6673 44.65093,-19.9932 30.65665,-37.9872 31.32243,0 23.99191,30.6557 74.64281,19.3274 71.30893,7.3306 48.65059,-5.998 51.98245,-18.6607 91.30219,0.6668 51.31569,-1.9994 55.31533,-34.6553 35.98785,25.9913 41.31906,5.3312 41.98583,-19.9933 35.98786,6.6648 41.98587,11.9959 17.9939,13.9953 70.6431,15.3278 42.6517,-35.3211 33.9895,-29.3231 110.6286,-17.9939 45.9845,-35.9878 63.3127,-5.998 0,-47.3171 -29.9909,-75.9743 -23.3261,-62.6459 -2.6651,-48.6496 27.3237,-43.9851 -24.6586,-28.6573 -102.6324,-21.9926 -73.3093,22.6593 -67.977,-22.6593 -43.9852,15.3278 -71.9757,-15.3278 -54.64755,0 -113.96155,-12.6628 -85.30521,33.3228 -57.31366,23.9919 -60.64653,-5.3322 -50.64991,-31.9892 -69.97638,-15.3288 -111.96222,-0.6658 -55.31433,13.9953 -54.64856,1.3335 -78.64046,-13.3295 -102.631369,31.9892 -93.9682895,-16.6603 -42.6526065,36.6536 -16.661377,39.3207 -81.305558,35.9869 -89.96964,-25.9913 -81.97234,27.9906 -35.32108,-31.3224 -76.64114,-7.9973 -83.97166,95.3008 3.33188,33.3218 -19.32648,33.3227 -57.94345,53.349 40.18744,44.2061 z m -937.69751,569.4939 72.9753,11.4961 30.9896,-6.9977 29.9898,16.9943 20.993,27.9906 26.9909,9.9966 31.9892,-6.9976 30.9895,-22.9923 64.9781,-28.9902 14.9949,-34.9882 24.9916,-17.9939 20.9929,-28.9902 9.9966,-68.9768 -64.9781,-50.9828 -58.98,-7.9973 -58.9801,-52.9821 -120.9592,9.9966 -68.9767,46.9842 -10.9963,30.9895 -68.9768,5.998 -32.9888,74.9747 -5.998,44.9848 24.9916,36.9875 39.9865,22.9923 z m -507.6347,561.48049 74.9327,-22.67635 51.2697,-88.73606 62.116,-64.08737 0,-53.24203 -87.7504,-20.70502 -89.7217,0 -65.074,-34.50836 -32.5361,-49.2984 -70.99,13.8034 -82.8191,63.10169 -20.705,70.98905 15.7747,77.89071 18.7327,88.73606 36.4807,53.24203 97.61,15.77468 z m -488.0294,1530.31355 43.9852,0 21.9925,-7.9973 35.9879,12.99562 63.9785,-17.99393 35.9879,17.99393 57.9804,5.99797 34.9882,-17.99392 19.9932,-49.98313 -13.9952,-30.98954 50.9827,-70.97605 54.9815,-64.97807 39.9865,-14.99494 23.9919,-31.9892 -5.998,-41.98584 17.9939,-43.98515 c 0,0 -32.6559,-68.64283 -32.6559,-79.30623 0,-10.6634 8.664,-86.63777 8.664,-86.63777 l 23.9919,-46.65125 29.3231,-21.3258 57.3147,-72.64249 0,-27.99055 21.9916,-68.643834 16.6614,-82.63911 0,-40.65328 c 0,0 -27.9906,-62.645856 -34.6553,-72.642486 l -3.9987,-41.98582 c 0,0 11.996,-38.65397 11.3292,-44.65194 -0.6658,-5.99798 -0.6658,-5.99798 -0.6658,-5.99798 l -9.3308,-31.9892 c 0,0 16.6613,-56.64688 26.658,-69.97638 9.9966,-13.3295 43.3183,-48.65059 47.317,-59.97976 l -56.6469,17.32715 -32.656,-5.99798 -22.6593,-3.33187 -45.9845,-23.32513 -67.3103,0 -9.3298,36.65463 -21.3268,27.99056 1.9993,32.65598 -23.3251,81.30555 -2.6651,33.98853 -9.3309,39.31974 11.3302,39.9865 c 0,0 -43.6523,46.651255 -44.485,58.647207 -0.8337,11.995952 -18.8276,77.3069096 -18.8276,77.3069096 0,0 -39.9856,48.6495814 -49.3164,51.9824564 l -29.9899,69.976377 c 0,0 15.9946,57.98044 17.3272,82.63912 1.3325,24.65867 -13.3285,94.63405 -13.9953,105.29746 -0.6668,10.6634 -4.6644,97.30016 -4.6644,97.30016 0,0 -46.6513,69.97638 -49.3174,79.97301 -2.6651,9.99662 -6.6637,44.65093 -6.6637,44.65093 l -22.6594,39.32073 -36.6547,31.9892 -13.3275,43.98516 c 0,0 -34.6553,48.64959 -35.3221,57.31366 -0.6658,8.66408 -4.6644,20.66003 -4.6644,20.66003 0,0 -38.654,25.32545 -41.9858,31.9892 -3.3329,6.66575 -12.3299,40.98816 -12.3299,40.98816 z m 620.1238,276.23886 -31.3224,-44.651 -2.6661,-31.3234 -11.3292,-19.32648 -5.998,-114.62832 -12.6627,-55.31433 5.3312,-51.31569 -50.6489,-91.30219 -13.3295,-7.33152 -9.9967,0 -16.6603,55.31533 8.663,36.65363 -41.9858,50.64991 0,109.96289 15.3288,39.32073 -15.3288,55.98114 17.9939,65.9777 20.6601,39.9865 34.6553,41.3181 56.6468,-31.3225 z m -351.8813,429.1891 50.6499,-26.657 68.6439,-21.3268 3.3318,-69.3096 -24.6586,-68.6438 15.9946,-68.6429 -21.9926,-72.6425 -46.6503,0 -61.979,-16.6613 -35.9879,-23.9919 -41.3201,11.9959 -102.6313,12.6627 -16.6614,18.6608 -27.9906,0 22.6594,53.9817 -13.9953,73.9751 -24.6587,73.975 90.6365,51.9825 11.9959,48.6495 29.9899,45.9845 54.6475,-29.9898 z m 309.8955,-120.6253 23.3251,45.3177 25.9912,29.3241 41.611,11.3292 43.0274,-40.6533 43.9852,-59.9797 -19.9933,-56.6469 7.3306,-13.3295 -32.655,-53.315 -31.9892,0 -20.66,19.9932 -35.3211,-0.6667 -34.6553,12.6627 -37.3204,31.3224 21.9925,29.9899 z m 124.8288,393.8721 40.1795,-21.9736 47.7139,-6.9056 57.7585,0 41.435,-35.786 -35.1571,-65.2919 -67.1754,-22.6014 -18.2068,-31.3904 -30.7617,-6.9057 -23.8579,40.8073 -2.5102,26.3681 -11.3011,14.4401 1.2555,16.9503 -33.2737,39.5526 -34.5294,52.7362 41.435,-9.4168 z m -253.0076,-25.7403 59.6419,32.646 70.943,41.435 16.3225,-45.2027 5.0223,-45.8296 67.1764,-59.0141 -6.9067,-23.2291 -46.4573,-13.1836 -21.3458,-27.6237 -32.646,0 -66.5475,15.6948 -23.2292,10.6734 -26.3681,37.0405 -47.0851,20.0892 30.7616,16.3235 z m -184.8906,35.7849 -34.2155,33.9016 -61.5262,22.6014 -71.5688,-42.0638 11.9269,-35.1572 -24.4837,-37.6693 21.9736,-20.717 26.9949,10.0456 32.0192,-13.1845 33.2737,3.7667 55.2474,-8.789 20.717,40.1794 z m 510.7236,200.8992 53.364,-32.6459 16.9503,-32.646 -55.2463,-21.9736 -41.4361,13.8123 -69.0596,-19.4624 -65.9198,11.3012 -39.5517,-1.2556 -3.7667,37.6683 30.1338,23.8569 37.0415,1.8834 68.431,62.7808 59.014,-23.2291 z m -391.7537,47.7139 -10.6734,35.1582 -32.0182,28.2514 4.3945,39.5517 -14.4392,34.5293 -34.5293,-20.718 -35.1581,-8.2262 -48.9695,-80.2939 65.293,-45.2027 20.4031,-25.1126 32.9608,-21.3458 23.856,37.0405 z m 910.5247,121.8758 -45.3187,-10.6634 -45.3177,5.3322 -48.6506,-7.9983 -75.7475,25.9913 -60.8724,-3.9977 -46.6513,7.9973 -43.3183,-16.6614 -49.3174,16.6614 -39.3197,31.3224 -45.9845,12.6628 -48.6506,0 -53.315,125.9584 -3.9986,65.311 -18.6607,64.6452 13.3285,40.6522 27.9905,28.6574 37.3214,11.9959 25.9912,25.9913 15.3279,77.9736 25.3244,30.6557 1.3336,40.6533 42.6516,18.6607 40.6533,7.3305 23.3251,29.3231 65.3119,50.6499 49.3164,10.6634 32.656,-5.3312 93.3015,28.6563 33.9885,35.9879 41.3191,19.9932 39.9865,38.654 49.3163,-24.6577 51.9825,3.9986 63.3116,20.6591 33.98856,16.6614 62.64586,-3.9987 99.96627,15.9946 48.64958,35.3211 29.3241,39.3198 57.31366,19.9933 105.29747,-23.9919 c 0,0 65.31095,32.6549 105.29747,23.9919 0,0 40.65327,-27.3228 92.63573,-33.9876 51.98245,-6.6647 101.96459,-20.6601 114.62732,-20.6601 12.66273,0 92.63573,17.3293 92.63573,17.3293 l 107.963573,-3.3329 40.653281,-19.3266 36.65463,-5.3322 25.99123,-31.9892 33.98853,-18.6597 43.985156,-3.3329 33.32175,-16.6603 37.98718,21.9925 41.98584,8.6631 49.98313,37.9872 131.2887,23.3261 77.3079,3.332 68.64284,-13.9954 63.97841,-1.9993 51.98246,-45.3177 c 0,0 125.95849,-21.3258 187.2708,-63.3117 0,0 85.96999,-7.9973 121.95784,-17.3271 l 79.973,3.3319 60.6465,-19.9933 68.6439,7.9973 59.313,19.9933 c 0,0 59.314,-9.3299 68.6438,-11.3292 9.3299,-1.9993 15.9946,-4.6654 15.9946,-4.6654 l 40.6523,-24.6577 c 0,0 26.659,-43.3194 43.3194,-53.316 16.6604,-9.9966 53.315,-30.6557 53.315,-30.6557 0,0 -12.6627,-99.9662 -25.9912,-122.6256 -13.3285,-22.6593 -42.6516,-77.9736 -43.3184,-81.9723 -0.6668,-3.9986 0,1.9993 -0.6668,-3.9986 -0.6657,-5.998 -18.2708,-69.7095 -53.9818,-95.3019 -39.9865,-28.6563 -98.6327,-20.659 -98.6327,-20.659 l -51.3166,-11.996 -78.6416,1.3326 -85.3042,-6.6648 -59.31295,34.6553 -114.62832,4.6655 -54.64755,31.9882 -135.95412,31.9892 -53.31601,42.6526 -132.62125,5.998 c 0,0 -75.97535,-39.3198 -88.63708,-43.3184 -12.66173,-3.9987 -69.31062,-30.6567 -85.97099,-32.656 -16.66038,-1.9993 -101.96559,-21.9926 -121.95885,-19.9933 -19.99325,1.9994 -73.30826,28.6574 -73.30826,28.6574 l -86.637758,8.663 -47.983807,9.9967 -39.319731,1.3335 -92.635744,31.9892 -47.9838,-1.3335 -46.65026,13.9953 c 0,0 -30.65665,3.9986 -55.9811,5.9979 -25.32547,1.9994 -37.32142,-0.6657 -37.32142,-0.6657 l -41.31905,17.3271 c 0,0 -55.98111,54.6486 -67.97706,67.9771 0,0 -69.97639,39.3207 -143.95142,58.6472 l -79.30623,10.6624 -40.65329,33.3227 -45.3177,19.3265 -36.65463,-23.9919 c 0,0 -43.31938,-9.3309 -52.64923,-6.6648 -9.32986,2.6661 -83.97167,16.6604 -114.62732,11.996 0,0 25.99122,-8.6631 37.98718,-18.6597 11.99595,-9.9966 21.99257,-43.9852 21.99257,-43.9852 l 42.65161,-15.3288 33.32276,5.3322 29.98988,-35.9878 37.98718,-20.6601 -5.99498,-65.3119 -32.65898,-60.6456 -59.31399,1.3326 -65.97773,-19.3265 -75.30758,-18.6607 -41.31909,33.3218 -65.9777,17.9939 -93.3025,-14.6611 -5.3312,-45.3187 15.9946,-49.9831 -17.994,-96.6334 0,-55.9811 -7.9973,-42.6526 49.9862,-90.6384 z m 146.6175,227.9241 128.6226,38.6539 73.30926,-6.6647 63.31164,6.6647 59.31298,-22.6593 62.64586,-15.9946 61.97908,-22.6594 62.64586,-15.9946 -19.99325,-41.9858 -23.32613,-15.9946 -17.99393,-35.3211 -1.99932,-34.6553 -44.65093,-36.6536 c 0,0 -65.97774,-27.3268 -91.3032,-24.6597 -25.32445,2.6671 -28.65632,0 -28.65632,0 l -44.65193,-31.3214 -31.32243,31.3214 -25.99123,23.3262 -115.96087,58.6492 -61.31334,61.3123 -11.3292,40.6532 6.6648,43.9832 z m 1249.41138,-187.6047 -4.49849,-46.9841 -14.4951,-38.9869 0,-49.4833 18.99359,-40.9861 -16.49444,-39.4867 0,-33.9885 6.99764,-8.997 9.4968,-90.4695 -102.46543,11.4962 -54.981444,34.4883 c 0,0 -83.9716628,-6.9976 -100.965928,-4.9983 -16.994265,1.9993 -20.992915,1.9993 -20.992915,1.9993 l -48.98347,-22.9922 c 0,0 -40.986163,-5.4981 -42.985493,-4.4985 -1.99932,0.9997 -1.99932,0.9997 -1.99932,0.9997 0,0 -20.99293,34.9882 -24.99158,36.9875 -3.99865,1.9993 -3.99865,1.9993 -3.99865,1.9993 0,0 -68.97672,44.9848 -82.97199,48.9835 -13.99528,3.9986 -48.98347,7.9973 -48.98347,7.9973 l -42.9855,22.4924 -21.49275,0.9997 -14.99494,7.9973 -56.98076,-0.9997 -36.48769,-9.4968 -8.99696,47.484 5.99797,13.9952 -1.49949,10.9963 5.49815,36.9876 18.49375,32.9888 -3.99865,40.9862 36.48769,19.4934 25.49139,26.9909 5.99798,42.9855 25.4914,30.4897 40.48634,-14.9949 39.48667,0.4998 38.48701,-8.4971 43.48532,7.4974 17.4941,-35.9878 88.470148,-58.9801 60.979422,-7.9973 74.474867,27.9905 158.946353,-17.9939 35.98787,20.9929 z m 19.16053,-2995.98886 m -17.37814,15.72369 32.43606,20.64103 25.85927,11.11525 c 0,0 36.97352,20.64103 53.53193,32.66299 0,0 13.15656,35.38605 12.92964,39.24175 l -3.8557,38.10714 11.79502,35.38505 -1.13362,40.14945 72.35859,-18.3728 34.47836,3.40285 26.53904,16.78534 34.25144,-44.23207 16.33049,-13.15656 6.12394,-26.76597 18.14588,-33.34374 -3.40185,-40.37537 24.49873,-41.73592 31.75628,-44.68592 0.90769,-30.39474 22.91027,-23.36411 22.00257,-14.06326 c 0,0 14.74403,-35.61199 18.14588,-54.89248 l -5.67109,-27.90058 -1.13462,-30.16882 c 0,0 10.88733,-0.45384 17.46611,-4.08262 6.57878,-3.62877 34.25245,-10.20755 44.00616,-6.12393 9.7537,4.08362 35.15713,19.73534 37.88021,24.49773 0,0 -6.35185,26.99189 -5.67008,29.71497 0,0 15.42479,13.38248 19.28049,19.73434 l 7.71139,25.63235 c 0,0 -4.53646,22.68335 -4.08262,26.76597 l -7.93832,23.36311 16.10457,24.04389 c 0,0 20.64003,5.44416 24.72365,8.84701 l 2.26924,27.21981 c 0,0 12.47678,19.28149 17.92095,19.50842 0,0 42.19076,-31.07551 48.54261,-32.43705 0,0 -8.16624,-17.23918 -7.71239,-19.05357 0.45384,-1.81439 -2.26924,-22.68334 -3.8557,-24.95158 l -0.22693,-24.72465 -6.12493,-20.86796 2.04131,-25.63236 c 0,0 14.97095,-24.95157 17.91996,-34.47836 0,0 5.21824,-12.70271 21.09588,-23.13719 l 18.82665,5.67109 18.59972,-4.99032 c 0,0 17.23818,27.44674 18.82665,34.70529 1.58846,7.25855 -1.13462,46.27339 -1.13462,46.27339 l -13.61041,26.53904 8.16625,26.53904 21.77563,19.50742 c 0,0 5.2162,45.13876 9.5258,53.07808 l 28.3534,-9.29986 34.9312,-2.04131 25.8573,-36.7466 6.1249,-25.40542 -4.0826,-22.68335 -12.022,-21.09588 2.0414,-25.40443 -1.5875,-24.95158 c 0,0 3.4018,-15.65171 5.897,-18.3728 2.4952,-2.72108 23.3641,-12.70271 23.3641,-12.70271 l 31.7563,0.68077 21.7757,-1.58746 22.4565,12.92963 0,26.0852 -8.3932,21.3218 11.795,22.90928 -3.6298,27.44673 c 0,0 19.7334,21.32281 24.4978,40.6033 l -6.8047,20.86795 3.6297,27.90059 59.6559,14.5171 67.3683,-4.08263 -3.4039,-22.45642 c 0,0 -22.6823,-37.65429 -22.6823,-40.37637 0,-2.72208 0,-2.72208 0,-2.72208 l -1.8144,-28.35343 10.2075,-10.43447 -2.0423,-60.56357 34.9312,-25.63135 c 0,0 106.836,-11.11625 128.3857,-6.57878 0,0 -6.3518,35.8399 -6.5778,41.28307 -0.2259,5.44316 12.9297,62.8318 12.9297,62.8318 0,0 -18.3738,26.99189 -24.0449,43.5513 l 8.3931,26.99288 -5.671,27.21982 26.539,1.81438 31.2695,-10.6504 54.9814,-3.74874 29.9899,-45.98447 22.2425,-22.49241 c 0,0 34.9882,7.74738 44.4849,10.99629 9.4968,3.2489 45.4847,28.24046 45.4847,28.24046 l -4.2486,40.48634 c 0,0 -37.2374,51.48263 -41.9858,63.47858 l -23.4921,73.72512 -12.4958,21.24283 -2.4991,29.73996 11.4961,26.24115 c 0,0 -12.2459,15.24485 -15.4948,23.24215 -3.2489,7.9973 2.2493,23.74199 2.2493,23.74199 0,0 -18.7437,16.24452 -20.743,27.49072 -1.9993,11.2462 4.7484,33.98853 4.7484,33.98853 l 20.9929,19.49342 c 0,0 -0.7498,62.97875 2.7491,77.72377 l -19.4935,38.98684 c 0,0 -34.4883,47.48397 -42.9854,54.73153 0,0 -7.4975,30.98954 -8.2473,41.73592 -0.7497,10.74637 -5.2482,30.48971 -5.2482,30.48971 0,0 7.7474,27.2408 7.9973,35.98785 0.2499,8.74705 -2.2492,42.735575 2.2493,54.731527 4.4984,11.995952 6.2478,50.482962 6.2478,50.482962 l -9.9966,31.239458 15.7447,69.726467 -9.2469,35.238106 c 0,0 -23.742,17.49409 -31.2394,24.99156 -7.4975,7.49747 -20.4931,24.24183 -20.4931,24.24183 0,0 -45.9845,29.98988 -55.7312,43.98515 l -8.7471,33.4887 -28.2404,32.23912 -0.9997,5.99797 c 0,0 -16.7443,17.24418 -20.4931,30.23979 -3.7487,12.99562 -8.747,20.99293 -8.747,20.99293 l -28.2405,27.49072 c 0,0 -28.4904,43.98515 -33.2388,56.98077 l -2.749,33.48869 c 0,0 -28.9902,24.74165 -35.2381,31.73929 -6.2479,6.99764 -21.9926,28.49039 -21.9926,28.49039 l -33.9885,16.74435 -35.738,5.99797 4.9983,39.48668 c 0,0 -9.9966,30.4897 -20.4931,47.48397 -10.4964,16.99426 -30.9895,59.47992 -30.9895,59.47992 l 13.2455,33.73862 0.25,39.48667 20.2431,35.98786 3.7488,33.23878 16.7443,27.99055 c 0,0 20.828,72.72746 34.1565,78.39155 13.3285,5.66408 99.6323,23.32512 99.6323,23.32512 0,0 25.9913,17.66104 25.9913,57.98039 0,0 75.6424,69.9754 112.2961,90.6354 0,0 6.0779,41.419 16.6603,45.6516 18.3279,7.3305 12.2039,21.6637 8.3312,42.3187 -0.9996,5.3322 -3.9986,13.3295 -3.9986,13.3295 l -20.3272,15.3279 -5.665,25.6583 -16.3275,20.659 0,21.6597 c 0,0 -5.3312,21.6588 -20.3262,47.9839 l 10.6634,23.3261 -1.9993,25.3245 18.9936,46.6512 -8.998,51.3157 37.3214,-15.3288 c 0,0 21.3248,60.6465 20.6591,67.6442 -0.6658,6.9976 -15.3279,65.9777 -15.3279,65.9777 0,0 68.6439,111.6293 68.6439,119.6266 0,7.9973 -66.3117,89.6368 -66.3117,89.6368 0,0 -4.6644,33.6546 -6.6637,36.6536 -1.9993,2.999 -40.6533,30.3237 -40.6533,30.3237 0,0 -46.3183,1.6655 -50.6499,3.3319 -4.3315,1.6665 -4.3315,1.6665 -4.3315,1.6665 0,0 -65.311,27.3247 -86.3039,28.9902 l -47.9838,48.6495 -32.656,56.9808 -103.2982,85.6381 -49.6503,-15.9946 -151.94863,23.658 -51.31569,24.3258 -51.98245,-1.3335 -43.98516,22.3264 -55.64821,10.6624 c 0,0 -81.97235,-41.319 -87.30355,-45.3177 -5.3312,-3.9986 -54.83949,-50.242 -74.47586,-144.2853 -9.49679,-45.4846 -17.99393,-77.9737 -17.99393,-77.9737 l -3.49881,-49.4833 101.46575,-83.9716 4.99831,-31.4894 38.98684,-20.9929 32.48905,-48.9835 c 0,0 11.32917,-19.3264 -12.66274,-26.3241 -23.9919,-6.9976 -105.63135,-51.9824 -183.93793,-59.6468 l -63.31163,26.3241 -128.29071,-16.9943 -63.64451,18.3278 -67.31129,-14.662 -67.64417,11.663 -48.64958,38.653 -52.649237,-47.317 0,-38.3201 -30.656654,-64.6452 -31.3224304,-16.9942 -18.9935896,-31.3225 -33.98853,-14.9949 c 0,0 -62.312969,29.656 -68.976719,29.3231 0,0 -39.31974,-6.9986 -74.30793,7.3305 l -20.99291,-18.6597 -25.99123,-4.3325 -23.9919,13.6624 -16.32849,25.3244 c 0,0 5.66509,22.9933 3.66576,29.657 l -24.99156,47.9838 -47.98382,24.9916 -17.32715,25.6583 -5.3322,22.3255 c 0,0 -29.3231,37.6543 -39.31973,39.9865 0,0 -16.66138,0.3339 -26.99089,4.9983 0,0 -24.32579,17.3271 -27.99055,16.3275 l -17.66105,2.3322 -17.32715,24.6587 -25.32445,9.3298 -34.32242,-6.9976 -31.9892,14.9949 -28.32344,-13.9953 -39.65363,-3.6647 c 0,0 -32.98787,11.662 -45.65059,14.661 -12.66273,2.999 -21.65969,7.6654 -24.32579,9.3309 -2.6651,1.6654 -49.98313,16.6604 -49.98313,16.6604 l -32.32209,4.6654 -33.32176,-3.9987 -30.65666,8.6641 -66.6445,-2.6661 c 0,0 -48.64958,34.9882 -88.63608,44.6519 0,0 -7.3316,-39.3197 -16.3285,-51.9824 l -24.9916,-11.6631 -13.3285,-28.3234 c 0,0 -43.3184,-41.653 -47.317,-60.9794 0,0 -44.3181,-24.3258 -55.9811,-43.6523 l -9.9967,-9.3298 -1.3335,-29.9899 -12.9956,-23.659 -16.9943,-18.3269 -6.6637,-26.3241 -24.6587,-13.6624 -13.9953,-23.659 11.6631,-47.9838 34.3214,-39.3197 0,-52.6492 c 0,0 20.9929,-20.3262 35.655,-50.3161 14.661,-29.9899 36.9875,-86.9707 36.9875,-86.9707 0,0 -4.9983,-35.3211 -3.9987,-48.9835 0,0 -20.9939,-47.6509 -20.3271,-50.9827 0.6668,-3.3319 -1.3326,-55.9811 -1.3326,-55.9811 l 37.6543,-94.96796 65.6439,-52.98212 49.3173,-55.98111 28.6564,-8.66408 22.99222,-69.64249 c 0,0 -32.65502,-53.98178 -37.98722,-75.97437 -5.3312,-21.99257 -5.3312,-65.31195 -5.3312,-65.31195 l 30.9896,-38.8039 c 0,0 6.99762,-113.81059 5.99796,-117.80924 -0.99966,-3.99865 -20.66006,-20.99292 -23.65906,-29.32311 -2.999,-8.33118 -14.9949,-29.3241 -14.9949,-29.3241 l -49.6493,-37.65429 c 0,0 -36.9875,1.66644 -41.9858,-8.99696 -4.9983,-10.6634 -7.6644,-11.32918 -7.6644,-11.32918 l 0.6668,-44.31805 c 0,0 -43.3184,-89.96963 -42.6526,-101.2988 0.6667,-11.32918 16.3285,-49.65025 14.9949,-62.31198 -1.3325,-12.66273 -43.9852,-87.970308 -43.9852,-87.970308 l -10.3295,-33.6556414 -0.6667,-34.6553036 -19.3265,-38.986843 -16.9943,-15.327827 -10.6634,-32.988867 0.3329,-34.6553 -22.3255,-23.9919 -33.6556,-11.99595 -14.3282,-31.32244 -22.3254,-23.65901 16.3275,-28.65733 0,-35.32108 5.6651,-30.65665 0,-25.32445 8.9969,-37.32041 -5.998,-35.98786 -27.3247,-19.99325 -10.6624,-33.65564 c 0,0 1.9993,-23.65901 0,-40.65328 -1.9994,-16.99426 -1.3336,-28.32344 -1.3336,-28.32344 l 6.3319,-27.65767 20.659,-23.9919 0,-35.98785 10.9963,-28.32344 c 0,0 -4.3316,-31.65632 -2.3322,-37.98718 l 72.3086,-18.9936 45.3187,9.32986 c 0,0 27.6576,1.66644 51.9824,-1.66644 24.3248,-3.33288 45.3177,-8.99697 45.3177,-8.99697 l 31.6563,-37.3204 94.96802,-16.99426 30.65566,38.32006 38.98684,27.65767 50.31701,1.33255 38.65297,31.32243 24.32579,10.6634 62.64585,20.32614 47.98381,-8.66407 0.33289,-9.32985 -22.65836,3.99865 c 0,0 -13.99527,-11.32918 -22.32646,-13.99528 -8.33019,-2.6661 -13.66139,-5.3312 -13.66139,-5.3312 l 15.9946,-12.99561 16.32749,-25.99124 c 0,0 21.99258,-18.6607 31.32243,-19.99325 9.33085,-1.33255 22.65935,-7.9973 22.65935,-7.9973 13.32851,-4.99832 27.32379,-47.98381 27.32379,-47.98381 l 75.30758,-49.65024 19.32748,-20.99291 7.33052,-28.65734 15.66172,-23.32512 19.99325,-58.31332 51.64957,-39.98654 23.99191,-22.3254 30.98954,-4.9984 c 0,0 83.97067,34.3225 138.28633,33.6557 l 7.66442,17.66104 21.3258,12.99561 12.32884,18.6607 66.6445,25.32445 16.3275,27.65767 c 0,0 -16.99427,52.31535 -32.98887,72.97538 l 0.66677,41.98582 16.99426,36.98752 -21.99257,34.98819 -35.32208,19.99326 -28.32344,73.64214 13.3295,9.99663 1.99933,8.33019 12.66172,8.33018 4.99832,41.65294 32.98886,-4.99831 c 0,0 36.32175,0 44.98483,-3.33187 8.66407,-3.33188 28.99021,-6.99764 28.99021,-6.99764 0,0 18.993591,-21.99258 31.322429,-24.99157 12.32984,-2.99898 41.320057,-16.32748 62.6458599,-14.66205 l 21.9925781,8.66408 18.99359,-15.66171 15.327828,-7.66442 21.65969,-30.98954 c 0,0 54.982445,-53.64889 78.307575,-64.3113 23.32512,-10.6624 73.2033,-28.20148 90.58143,-44.25806 z" />
</svg>