<?xml version="1.0" encoding="UTF-8" standalone="no"?>

<!-- Created with Inkscape (http://www.inkscape.org/) -->

<svg id="svg2" xmlns:rdf="http://www.w3.org/1999/02/22-rdf-syntax-ns#" xmlns="http://www.w3.org/2000/svg" height="550" width="588" version="1.0" xmlns:cc="http://creativecommons.org/ns#" xmlns:xlink="http://www.w3.org/1999/xlink" xmlns:dc="http://purl.org/dc/elements/1.1/">

	<path id="D2b" d="M562,442l-3,2,1,1,1,2-1,2v1l-1,2v1l2,2v3l-1,2-1,1-2-2h-3v-1h-2l-3,2v3l-5,1-4,4-1,2h-2l-1-2v4h-1l-1,3,1,2-2,1-1,2h2l1,1h3l1,1,3-1,1,1v1l2,2h3l1,3h3l-1,1,3,3h1l1,1v4h1,2l1,1v5l1,1v3h4l3-2v-6l5-6v-11l-2-3-1-12-1-2-3-2v-7l1-3-1-5-1-4-1-1-2-1z" class="land departement corse departement2b"/>

	<path id="D82" d="M267,373l-2,4,2,2-1,4-1,1,1,2-4,1-2,1v3h-1l1,1h3l1-1,1,1-2,1v2l-2,1v2h4l1,2v2l1,1-1,2v1l3-1h5l1-1h2l2,3,4-2,1-1-1-1,1-1v-1h2l1,1,1-1,3-1h1l1-2-2-1h3l1-2,3-2h-3l1-3,6-1,2-1,3-1,1-1-1-3,1-3h-3v-4l-4,1h-3l-1,2-3-1-1,4h-1l-1-2-1-1h-1l-3,3h-4v-2-2l-2,1h-1l-2-2h-1l-2-2,2-1v-1h-3l1,1h-5l-2-1z" class="land departement midi departement82"/>

	<path id="D85" d="M187,222l-1,2h-3l2,2-1,3-3,1-1-1v-3l-1-2h-1l-2,2,1,4,1,2-1,2-3-1-4-1-1-3h-2l-3-2-1-1-4-3-5,7-1,5,6,6v1h2l3,11,4,2,4,4h4l2,4h4l2,2,4,3v-3l1,1,6-4h3l1,3,4-1,3,2,2-1,2-1,1-1,3-2-2-1-2,1v-2l2-2-2-3,1-1v-5l-2-3,1-2-3-3,1-3-4-4v-2l-2-2v-1l-2-2h-5l-2-1h-2l-2-2-2-1z" class="land departement pdll departement85"/>

	<path id="D56" class="land departement bretagne" d="M108,156l-4,1h-2l-2.1,2,0.1,1,1,4,1,3,5,1,2,1,1-1,2,2-1,1v3h-1l-2,2h-2l-1,4,2,3,4,1,1-2-1,2,3,1,3,4,1,2v2l-1,3,3,1,1-1-1-1v-4l2,1,1-3v2l3,2,1-2-1-3,2,3h3l-1-2,2,1,2,2-1,2-2-1-3-1-1,2h2l2,3,10-1,2,1-1,1v1l1,1,2-2,1,1h3l4-2,5-2v-5l1-1-2-3,2-2v-1h-1l2-1,1-2v-2h-2l-1-2,2-2-2-2-2-2h-3-1v-1l2-2,1-3-1-2-1,1h-3l-2-4h-1l-3,1v2l-3,2-2-1-1-2-1,1h-2l-1-1h-1l-2-2h-3l-3-2h-2l-1,1-3,2-4-2-1-1-1,2-2-1v-1l-3-1z"/>

	<path id="D53" d="M230,142h-2l-1,2-2,1-6-1-5,3-2-1-2,2-2-2-2-2-3-1-2,2-3-1v5l1,1v4l-2,2v3l1,1v6l1,1v5h-3l-1,1-3,6-1,3v1l3,1h3l3,2,1-2,6,2,2,1h5l2-2,4,1h2v-2-5-1-1h3l1-1v-1l-1-4v-1l3-1,1-2-1-2,1-1,3-2-1-3,1-4,1-2,3-1-1-4h-2l-1-5-2-1z" class="land departement pdll departement53"/>

	<path id="D41" d="M269,167l-1,2-2,2,2,2v4l-1,3h-2v3l-3,4-2,1-2,1,1,2h9l1,1-2,1,1,2,1,1,2-2,2,2h2l1,5,1,4v7l1,1h4l3,5,1,1,2-1,1-1h4v-1l3-1h3,1l2,1,3,2h2v-3l1-1h1l1,1,4-1,2-1v-1l-1-1v-1l2-4,2-1v-2l1-1h-2v-3h-3v-1l2-2,3-1-1-3h-7l-1,1h-2l-1-1h-3l-1,2h-2l-1-2-1-2-1-1-3-1-2-1v-1l-1-3,3-2-1-1-1-1h-1v-1l1-2v-1h-1l-3-1-2,3h-3l-4-1-1-3-2-1-1-2h-2l-1-1,1-1v-1h-1l-3,1-2-1z" class="land departement centre departement41"/>

	<path id="D21" d="M405,172v2l-3,2h-6v1l1,1-2,2v2,1h2v1,3l-2,1v2,1l-1,1v2l-3,4-1,2v3,1,1l-2,1v1l2,2v1,2,2l1,1,2,1,2,2v1h-1v2l3,4,4-1,4,3,2,2v2l3,1,2,1,6-2,4-1h1l1-1h2l1,1h3l2-2h1l2-1v-1l-1-1,1-1,3-2v-1l1-2,2-1-1-2,1-2v-3h1v-1l-1-1v-3l-2-1v-3l-2-1,2-1,2-3v-1l-2-3-2-1-1,2-4,1v-1l-3-4-2,1h-2l-1-1h-3v-3l-2-1,2-3-4-6-3-4-3-1h-6z" class="land departement bourgogne departement21"/>

	<path id="D43" d="M361,316l-1,1v1h-2l-2,2h-4v1l1,3h4l1,3,1,1,1,4,1,1h2l-1,1-1,1-1,2,2,1,2,2v1l3,9,5-2,1-2h2v3l4-1,4,6,3-5,5-3h4l2-5h3v-4h3l-1-1v-3l1-2,2-1,2-4-3-3h-3v-4l-6-2h-2l-4,3-4-1v1l-3-1-2-2-1,3-3-1-1-1-1,3-2-1-1-3h-2l-1-1-2,1h-2l-2-1-1,1v-1z" class="land departement auvergne departement43"/>

	<path id="D69" d="M413,267h-2l-1,2-2-2-1,2-3-2h-1l-1,1-1,2,1,1v2l2,2-1,1h-4v3l-2,2,1,3v2l2,1v3l2,2v2l-1,2,1,1v2l-1,1v1l6,5,6,1,1,2-3,3,2,1,2-1h2l4-2v-1l-3-3,4-1,6-1,4-6-3-2v-2l-4-1-2,1-1-4-2-2h-1l-4-2,1-2v-6l1-1v-5l-1,2h-1l-1-4-1-3z" class="land departement rhone-alpes departement69"/>

	<path id="D14" d="M250,94.8l-5,0.8-7,4.2-8,3.2-7-3.6-15-2.3-4-1.9-5,1.5v2l-1,1.1v1.2l4,4,2,1,1-2,2,2-2,2,2,2-1,1,1,2-1,3-1,2-3,2-1-1-1,1,1,1-1,3-3,1,3,4h4l3,2,4-1,2-3,4,1,4-2,2-1,2,2,4-1,3,2,4-1,3-3,3-2,1-1,1,2h1v-1l4-1,1,1,4-1v-2-2h-2v-2l2-1v-2l-1-4-3-4,2-1-2-1v-7.2z" class="land departement basse-normandie departement14"/>

	<path id="D39" d="M442,211h-1v3l-1,2,1,2-2,1-1,2v1l-3,2-1,1,1,1v1l-2,1v3h2l1,3h3l1,1h1v1l-5,1,1,2h1v2,1l1,1,1,3v4l-2,1v3h2l1,2-2,1-5,1,2,1,4,5,3,1v3l2-1,4-4,3,2v2h6l7-9v-4l3-3-2-1,1-1h-3v-2l2-1-1-2-1-1,4-2,1-1v-2l-2-3-2-1-4-1v-4l-1-3-3,1-5-2v-2l2-3v-2l-1-2-3-1v-2-1h-2l-1,1h-2l-2-2h-1z" class="land departement franche-comte departement39"/>

	<path id="D10" d="M392,134l-4,3-4,2h-3l-5,3-5,1-3-3h-1v1l-2,1-1,2-1,2-1,3v4l1,1h2l5,5v5l3,2,2-1,3,4v3l2,3,1,2h8l4-1,1,2h1l1-2h6l3-2v-2h6v-2l-2-1,2-2h4l1-2v-7l-1-4-3-1-4-5v-3l1-2-1-1-6,2h-4l-3-6-1-3-2-1z" class="land departement champagne departement10"/>

	<path id="D55" d="M431,83.9l-1,2.2-2,1.1-1-1.3h-3l-1-0.7-2,3.5v1.4l2,2.8-1,3.8-2,1.7v1.3l1,2.3-1,1-2,1v2h1l-2,2,2,2,1,5-2,2,3-1-1,5-2,1-1,3,1,1-2,2,1,2,3,2,1,7,3,1,3,2,4,3h2l4,4v1l3-1v-1l4-1v-1h1v1l3-1,1-2v-2l-2-2v-1l1-1h2l-1-1h-1l-1-1v-4-2l1-3,2-3-2-2v-1l1-1h2v-1l-2-1v-1l2-2-2-2v-2h-1l-1-1-1-3v-1l-1-1,1-3,1-1v-1.2l-1-0.8v-1.6l-1-1.7-1-1.5-1-1.3-3,1-2,0.2-1,1.6-1,0.7v-0.7-1.3-1.1l-1-1.9v-2.2h-1v-3.6l-2-1.5-1-0.2z" class="land departement lorraine departement55"/>

	<path id="D03" d="M345,240l-2,4h-2l-1,2-2-3-5,6v3h1v2l-3,2-2-1-5,1-3,3v2l2,3v2l1,2,2-2,1,3,2,1,2,5v1l3,2h2l1-3,1-1v-1h2v1l3-3h3v1l-1,2,2,2v1l5,3,6,1h2,2l3-1,1,1,1,2,2,1,3-1,1,3,2,1v-1l5-1-1-10-1-3,1-2,3-1,4-3v-7l-1-2h-3l-1-2h-4l-1-1v-3l-3-7-2-1-4,5h-1l-1-2-2-1v1h-3l-1-1-1,1-3,1-2-2-3-2v-2l-5-1z" class="land departement auvergne departement03"/>

	<path id="D94" d="M51,35.8l-2.6,2.1-2.6,0.4-0.2,1.4-0.5,1.3h1.3l0.7-0.6-0.3-1,4-0.2,1,0.4v2.1l-1,2.1-5.8-0.8-0.9-0.8-2.7,1.9-2.6,0.7-3.6-0.2-1.1,3.9,1,1.7-1.6,4.6,1.6,3,2.7-1.4,6.7,3.7h11.6l6.8,3.2-0.1-0.7,4.9-12.2v-5.6l-3.1-0.8-0.8-1.5-1.3-0.6-2.7-3.1-4.9-2.8-3.9-0.2z" class="land departement idf idfbig departement94"/>

	<path id="D971" d="M36.3,502h-1.5l-1.4,1v3h1.1l0.1,2-1.1,1-0.2,1-0.9,1h-0.1-2l-0.3-1-1.5-1-2.7-1h-2.9l-1.4,2,0.1,3,0.4,1v1l0.2,2,0.9,4,0.9,2s0.6,1,0.7,1c0.1,1,0.8,2,0.8,2h1.4l0.4-1h1.4l2.1-2,1.3-1-0.1-5-0.7-2,0.2-2h1.4,0.1l0.4,1h1.2,0.9,0.1l0.1,1h1.8l3.1-1,1.8-1h3l2.7-1-1.7-1-0.2-1-2-1h-3.9l-1.2-2v-3l-0.8-1-2-1z" class="land departement dom departement971"/>

	<path id="D972" d="M81.1,500h-4.1c-0.4,0-2.2,1-2.2,1h-0.3l-1,2,0.3,2,3.1,3-0.5,1v1l1.3,2,4.3,4h3.8,0.3,1.1,0.1l-0.1,1,1.2,1h0.5s-0.1,1,0.3,1h-1.3-1.9-1.2-1.6l-0.9,1-0.4,2,0.3,1,0.9,1,1.2,1s1.1-1,1.5-1c0.5,0,0.8-1,0.8-1h2c0.6,0,1.2,1,1.2,1h2.9l1.4,1h0.7v-1h0.8,0.7l-0.4,1-0.8,1,0.4,1,1,1h1.3l1.2-1,0.4-1,1.6-2-1.2-1-0.5-2-0.7-2-0.6-1s-1.5-2-1.5-2-1.4-1-1.4-1l-0.2-2h0.8c0.5,0-0.2-1-0.2-1h-0.9l-1.3,1-0.4-1h-0.5l0.1-1h0.9l0.8-1-1.1-1h-0.9l-0.3-1,1-1,0.7,1h1.2,0.7v-1l0.5-1h-0.4l-1-1-0.6,1h-2.5l-0.8,1-1.1-1-1.2-2-2.8-2-1.6-1-2.9-1z" class="land departement dom departement972"/>

	<path id="D973" d="M132,499l-2,2-1,1-2,2v4,3l2,2,1,2,1,2-1,1-1,2v3l-1,2-2,2h1l1,1,1,1,2-1,2-1h4l1,1h1,2l2-1,3-5,1-3,2-3,2-2,1-2-1-2v-2l-2-1-1-1-2-1-1-1-1-1-4-2-2-1h-2l-2-1h-2z" class="land departement dom departement973"/>

	<path id="D2a" d="M531,480v2l1,1,4,2v1l-2,1h-3v2l1,1v4l4,1h2l1,3-1,1h-1l-1,2-1,2v3h3l1,1,2-2,1,1-1,3,1,1-2,2-2,3,4,1,6,1-2,3s-1-1-2-1v1c0,1-1,3-1,3l2,2,3,2,6,2,2,1h2l-1,2h3v2h3l1-4h-2l3-3-1-1v-2l4-2v-2h-2l-2,1v-2h3l1-2,1-7-1-2v-3l-3,2h-4v-3l-1-1v-5l-1-1h-2-1v-4l-1-1h-1l-3-3,1-1h-3l-1-3h-3l-2-2v-1l-1-1-3,1-1-1h-3l-1-1h-2-1z" class="land departement corse departement2a"/>

	<path id="D83" d="M497,400h-3l-2,2h-5l-4,3-3-2-5,1-1,2-3,3-7-5-4,2-1,1,3,2-4,3-1,4,2,1v4l3,3-1,1h-4v1l2,1-2,2,1,1h2l1,1v1l-2,1-1,2v3,1l4,2,1,3,2,1,2-2,3-2,6,1v1l-2,1,4,1-1-2v-2l2-2,3,1,1,1,1,1,2-1v-3l1-1h4l2-2,2,1,3-1v-5h-4l3-2,2-2v-3l6-1,3-3-2-2v-2l-1-1,1-1v-2l-3-1h-1l-2-2v-3l-2-1h-3l-1-2,3-2z" class="land departement paca departement83"/>

	<path id="D06" d="M503,370h-1l-2,1-1,3-1,1-1,3-1,4,2,3v3h1l4,3,3,3-1,1-2-1-3,1-1,1h-2v1l-1,1,1,2-3,2,1,2h3l2,1v3l2,2h1l3,1v2l-1,1,1,1v2l2,2v-5l4,1,1-2,2,1v-6l5-1,3-3h4v-2l3-2-2-4,3-3v-3l4-1,1-4-1-3v-2l-1-2h-3l-9,3h-3l-5-4-5-1h-2v-4l-4-2z" class="land departement paca departement06"/>

	<path id="D05" d="M487,329h-2l-1,3-3,1-1-3-1-1h-3l-1,1-1,4v1l4,1,1,2,2,1v4h-4l-1,1h-5l-2,2-2-1-2,2,1,2-2,1h-5v2l2,1-1,1-3,2h-4l-1,4v2l2,2-2,2-3-1h-3v1l2,2-3,1,1,3,6,2,2,3h2l-1,6,3-3h3l2,1,1-1-2-3-1-1,1-1,2,2h1v-3h-1v-2l2-3,4-2h1v-2h1l2,1v2l3,2,1-1v-3h-1l1-1h3l2-1,3,1h6l1-2,1-1v-2h3l1-2,2-2,3-3h2l2-2h2v-1l-3-2v-5l-2-1h-3l-5-2-1-6-3-1-1-2-1-2h-3z" class="land departement paca departement05"/>

	<path id="D48" d="M364,341l-5,2-2,4-3-3-3,9-3,6,4,5v3l3,2v5l1,6,3,2-1,2,5-1,2,1-1,1,5,4,5-1,1-2v-1l2-1,3,3h5l2-3v-3l1-2h-1v-4l-3-3h2l2-1,1-2h-1v-4l-3-4-1-7-5-6-4,1v-3h-2l-1,2-5,2-3-9z" class="land departement languedoc departement48"/>

	<path id="D15" d="M330,314v2l1,2-2,1h-2l-1-2-2-1v6l-4,2-2,3v3,2l-1,3h-2l-1,2,1,1,1,2-3,2,1,6,3,2-2,6,2,1-1,3h2l2-2h3v1h6l1-3h1l1-5h1v-4l6-5v1l1,4,4-1v5h2l1,6,1,2,3-6,3-9,3,3,2-4,5-2v-1l-2-2-2-1,1-2,1-1,1-1h-2l-1-1-1-4-1-1-1-3h-4l-1-3h-1l-1,2-3-1-2-3-1-1-2-1-1,2h-4l-1-4-6-1z" class="land departement auvergne departement15"/>

	<path id="D64" d="M220,415l-3,2h-5l-1-1-3,1-3,1-2-2-2,1-1-1h-3l-1,1h-5l-2,2h-5v1l-1-1,1-1-2-2-3,3h-5l-6-3-1,2-4,5-3,1-3,1v2l2,2h4v2l3,1v-2l4,1,2,1,1,2-1,1v4l-3,1v2l1,2,3,1,1-3,2-2v3l1,2h3l2,2h4l5,3h7v4l5,4,2,2,2-1h2,1,2l3-2v-4l2-1,1-7,2,1,2-1-2-2,5-5,3-7,2-2-2-3-2-3,3-2-4-5h-5v-1z" class="land departement aquitaine departement64"/>

	<path id="D12" d="M339,342l-6,5v4h-1l-1,5h-1l-1,3h-6v-1h-3l-2,2-1,1-1,2h-3l-1,1h-2l-3,3h-1l-2,2,1,3,2,3-2,1v4h3l-1,3,1,3,1-1,1,2,2-2,4-1,3,3,5,1,3,3,2,2,2,4v1l2,4v2l3,4,3,2,2-1,1-1h2l4,3h1,3v-6-2h2l3,2h3l-1-4,2-1h3v-3l3-2v-3h-3l-3-1-1-2,3-1v-2l2-2-2-1-5,1,1-2-3-2-1-6v-5l-3-2v-3l-5-7-1-6h-2v-5l-4,1-1-4v-1z" class="land departement midi departement12"/>

	<path id="D13" d="M421,397l-5,3-2,10-5-1-2,5,2,2-7,3-1,4,6,1h8l1,2h-3l-2,3,9,2,6-2-3-3,2-2,3,2,2,3,11,1,3-2v2l-3,3h4v2l-1,1h9l4,2h1v-3l1-2,2-1v-1l-1-1h-2l-1-1,2-2-2-1v-1h4l1-1-3-3v-4l-2-1,1-4,4-3-3-2-2,2-5,1h-4l-7-3h-5l-4-2-1-2-3-3-7-3z" class="land departement paca departement13"/>

	<path id="D84" d="M428,369l-3,1-2,3,1,3,3,1v1h-3l-3,3v-1-4l-1-1-5,1-1,2,4,5v5l5,5v3l-2,1,7,3,3,3,1,2,4,2h5l7,3h4l5-1,2-2,1-1-4-4h-5v-2l2-2v-2l-4-1v-3l2-1v-2l-2-1v-2l-2-1-3-2-1-2h-5l-4-1v-2l1-3-2,2h-4l-1-2,3-3-3-3z" class="land departement paca departement84"/>

	<path id="D04" d="M503,353l-3,3-2,2-1,2h-3v2l-1,1-1,2h-6l-3-1-2,1h-3l-1,1h1v3l-1,1-3-2v-2l-2-1h-1v2h-1l-4,2-2,3v2h1v3h-1l-2-2-1,1,1,1,2,3-1,1-2-1h-3l-3,3v1l-1-1-2-2-1,3-2,2v2l2,1v2l-2,1v3l4,1v2l-2,2v2h5l4,4,4-2,7,5,3-3,1-2,5-1,3,2,4-3h5l2-2h3l-1-2,1-1v-1h2l1-1,3-1,2,1,1-1-3-3-4-3h-1v-3l-2-3,1-4,1-3,1-1,1-3,2-1h1v-4h2l-1-1-2-1-1-2,1-2,3-4-1-2,1-1h-2z" class="land departement paca departement04"/>

	<path id="D30" d="M389,369l-1,2-2,1h-2l3,3v4h1l-1,2v3l-2,3h-5l-3-3-2,1v1l-1,2-5,1-5-4-1,1v2l-3,1,1,2,3,1h3v3l-3,2v2l3,1v1l1,1,1-1h1l1,1h2l1-3h2l2-3h3l1,4,1,2,2-1,3,1,1,2,6,4,2,5v2l-4,2-2,2,3,1v3h4,3l1-4,7-3-2-2,2-5,5,1,2-10,7-4v-3l-5-5v-5l-4-5-6-4-1,3-3,1v-3h-3l-1,4-2-1-4-3-2,1v-5l-3-2z" class="land departement languedoc departement30"/>

	<path id="D11" d="M319,425v3l-4-1h-4l1-1h-2l-4,1-2-2-2,2,1,2-3,2-1,3-2,1,2,2-1,2,10,4v7,3l1,5h-5l-1,1,6,6,3-2,5,5h-1,1l8-3-2-3v-3h18l-1-3,4-2,5,4,3,1-1-6,1-6h-3l-2-2,2-3,3,3,3-2,2-2v-2h-2l-1-3h-2l-3-3h-1l-2-1-1-3h-1l1,2h-3v4l-3,1-2-4-3,2-2-2-1-2,2-2-1-2h-6l-5-1h-2z" class="land departement languedoc departement11"/>

	<path id="D34" d="M378,396l-2,3h-2l-1,3h-2l-1-1h-1l-1,1-1-1v-1l-3-1v1h-3l-2,1,1,4h-3l-3-2h-2v2,6h-3-1l-2,2-7,2-2-2-2,3-1,2,3,3-1,3-4,2,1,2-2,2,1,2,2,2,3-2,2,4,3-1v-4h3l-1-2h1l1,3,2,1h1l3,3h2l1,3h2v-1l7-2,1-2h5l2-2,10-8,7-5h2l2-2,4-2v-2l-2-5-6-4-1-2-3-1-2,1-1-2-1-4h-3z" class="land departement languedoc departement34"/>

	<path id="D66" d="M344,454l-4,2,1,3h-18v3l2,3-8,3h-1-6l-1,2-3,1-2,2-6,1v2l3,3,6,1v4l3,2h2l3-4,4-1,7,2,5,5,1-2h2l1,1,1-1v-2l6-2,2-2,3-1h4l2,2,3,1v-3l-1-2-3-2v-16l-3-1-5-4z" class="land departement languedoc departement66"/>

	<path id="D63" d="M343,271l-3,3v-1h-2v1l-1,1-1,3h-2l-3-2,1,5,1,1,1,4-2,2-1,2-2,1-4,3,1,1,4,5,1,2-2,3v3l1,1,1,3-1,2,6,1,1,4h4l1-2,2,1,1,1,2,3,3,1,1-2h1v-1h4l2-2h2v-1l1-1v1l1-1,2,1h2l2-1,1,1h2l1,3,2,1,1-3,1,1,3,1,1-3,2,2,3,1v-1h-1l-1-3,4-3-2-6-5-3-2-5-2-3v-5l2-1-3-3-2-1-1-3-3,1-2-1-1-2-1-1-3,1h-2-2l-6-1-5-3v-1l-2-2,1-2v-1h-3z" class="land departement auvergne departement63"/>

	<path id="D65" d="M227,415l-2,1,4,5-3,2,2,3,2,3-2,2-3,7-5,5,2,2-2,1-2-1-1,7-2,1v4-1l4,2,3,3,1,2,3,3h2l7-3,2,3,4,1,1-2,2,1h3v-10h2l2,1,1-2v-1l2-2-1-3-1-1h-2l1-1v-2l-3-3v-1l2-3,2-1v-1l1-2,1-2-3-1h-5l-1-2h-2l-1-1h-2-1-2v-1l-2-1v-1l1-2h-1l-1-3h-2l-2-2v-3h-3z" class="land departement midi departement65"/>

	<path id="D40" d="M189,363l-6,3h-2l-3,18-5,16-1,7-1,4-3,5,6,3h5l3-3,2,2-1,1,1,1v-1h5l2-2h5l1-1h3l1,1,2-1,2,2,3-1,3-1,1,1h5l3-2-1-2,1-4,2-2-1-3,2-2-2-3,1-3h3l1,1,3-3,1,3,1,2,2-1v-2l1-2-1-1,1-4,2-2-1-1h-3l-2-1h-4l-1-4-2-3h-1v3,1h-3l-3-1-1-4-2-3h-2v-1l-2-2h-3l1-1v-1l-2-1-1-1h-3l-2,2h-2l-2-2-3,2-2-1,2-2v-2l-3-1z" class="land departement aquitaine departement40"/>

	<path id="D33" d="M190,305l-3,5-1,16-2,16-2,12v4l1-5,3-3,4,3v1l1,2h-5v-1l-2,1-1,3-2,2v5h2l6-3,3,1v2l-2,2,2,1,3-2,2,2h2l2-2h3l1,1,2,1v1l-1,1h3l2,2v1h2l2,3,1,4,3,1h3v-1-3h1l2,2h3l1-1v-2l-1-1v-2h2l2-1-1-2v-3l1-2,3-5,2-2h1l1-2h-3v-2-2h3l1-1h2v-4l2-1-2-2-3,3h-6v-1l-2-1,2-2v-2l-1-1v-1l2-1v-3l1-2-1-2h-2l-1-1-1,2-2-1-2,1h-3l-4-5h-3v-6l-5-1v-2h-1-6v2l2,5v6l-1,1-1-4-3-11-9-8v-4l-2-1z" class="land departement aquitaine departement33"/>

	<path id="D24" d="M257,301l-2,3h-3v5l-9,6v6l-3,4-2,1h-4l-2,4-1,1,1,1h2l1,2-1,2v3l-2,1v1l1,1v2l-2,2,2,1v1h6l3-3,2,2-2,1v4l3,2v3l3,1,2-1h4l2-2h1v2h4l1-1h1l2,2v1l-1,1v1h2l2-2h2l2,1,3,2v-1l2-2v-2l4-1,3-4h-2v-2h3l1-2,1-1,2-3-2-2v-2l1-1-1-3v-4h-4l-2-1,2-2-2-2,1-2h-1v-3l3-3-2-2-1-3-4-1-1-1,3-1-1-1-4-1-1-4h-6l-2,2h-1l-2-2,1-2-1-2h-5z" class="land departement aquitaine departement24"/>

	<path id="D47" d="M242,352h-2l-1,1h-3v2,2h3l-1,2h-1l-2,2-3,5-1,2v3l1,2-2,1h-2v2l1,1v2l-1,1h-3v1l1,4h4l2,1h3l1,1-2,2-1,4,1,1v-1l2,2,4-3,1,1h3l3-1,2-2,6-1,2,3,1-1h2v-3l2-1,4-1-1-2,1-1,1-4-2-2,2-4,2,1h5l-2-5-2-5h4l1-2-3-2-2-1h-2l-2,2h-2v-1l1-1v-1l-2-2h-1l-1,1h-4v-2h-1l-2,2h-4l-2,1-3-1v-3l-3-2z" class="land departement aquitaine departement47"/>

	<path id="D46" d="M293,336l-4,2h-1v1l-1,1v2l2,2-2,3-1,1-1,2h-3v2h2l-3,4-4,1v2l-2,2-1,3h-4l2,5,1,4h3v1l-2,1,2,2h1l2,2h1l2-1v2,2h4l3-3h1l1,1,1,2h1l1-4,3,1,1-2h3l4-1,2-1-2-3-1-3,2-2h1l3-3h2l1-1h3l1-2,1-1h-2l1-3-2-1,2-6-3-2-1-7-3-1-2,2-1-2-3,4h-2l-4-5-5-3z" class="land departement midi departement46"/>

	<path id="D09" d="M283,432l-1,1-1,1,3,2v1,1l-4,1-1,1v1h1l1,1-1,2h-1l-2-2h-2-2l-4,2v3l1,1-1,3-4,1-2,2v3l1,1-2,2h1l6,2h2l4,4,8-1,3,5,3-1,8,1,1,4,6-1,2-2,3-1,1-2h7l-5-5-3,2-6-6,1-1h5l-1-5v-3-7l-10-4,1-2-2-2-1,1h-3l-3-2h-1l1,2v1h-4v-2l-2-2-1-1z" class="land departement midi departement09"/>

	<path id="D32" d="M255,389l-6,1-2,2-3,1h-3l-1-1-4,3-2-2-1,3v2l-2,1-1-2-1-3-3,3-1-1h-3l-1,3,2,3-2,2,1,3-2,2-1,4,1,3h5l2-1h3v3l2,2h2l1,3h1l-1,2v1l2,1v1h2,1,2l1,1h2l1,2h5l3,1,2-1,4-4h6l3,2,1-1,1-4,2-4,3-2,2-1v-1h-2l-1-2h-1l-2-2v-2l-3-3-1-1h-2v-1l1-2-1-1v-2l-1-2h-4v-2l2-1v-2l2-1-1-1-1,1h-3l-1-1h-1l-1,1-2-3z" class="land departement midi departement32"/>

	<path id="D31" d="M291,400l-3,1-1,1-1-1h-2v1l-1,1,1,1-1,1-4,2-2-3h-2l-1,1h-5l-1,1,1,1,3,3v2l2,2h1l1,2h2v1l-2,1-3,2-2,4-1,4-1,1-3-2h-6l-4,4-2,1-1,2-1,2v1l-2,1-2,3v1l3,3v2l-1,1h2l1,1,1,3-2,2v1l-1,2-2-1h-2v10l8,1,1-10,2,1,4,2,2-2-1-1v-3l2-2,4-1,1-3-1-1v-3l4-2h2,2l2,2h1l1-2-1-1h-1v-1l1-1,4-1v-1-1l-3-2,1-1,1-1,1,1,2,2v2h4v-1l-1-2h1l3,2h3l1-1,2-1,1-3,3-2-1-2,2-2,2,2,4-1h1v-1-3l-2,1-3-1-2-3-1-1-5-2-1-1,2-1v-2l-2-1-1-3v-3h-1l-2-2-1-3h-1z" class="land departement midi departement31"/>

	<path id="D81" d="M316,384l-4,1-2,2-1-2-1,1-1,1-3,1-2,1-6,1-1,3h3l-3,2-1,2h-3l2,1-1,2,1,3,2,2h1v3l1,3,2,1v2l-2,1,1,1,5,2,1,1,2,3,3,1,2-1v3,1h1l-1,1h4l4,1v-3h2l5,1h6l4-2,1-3-3-3,1-2,2-3,2,2,7-2,2-2-4-3h-2l-1,1-2,1-3-2-3-4v-2l-2-4v-1l-2-4-2-2-3-3-5-1-3-3z" class="land departement midi departement81"/>

	<path id="D38" d="M439,289l-2,2-1,3-2,2-3-3h-2v3l3,2-4,6-6,1-4,1,3,3v1l-4,2v6l1,3,3,1,2-1,3-2,4,3h2l3,3-1,2v3l-1,3,1,1,1-1,3,1,5,1,1-1,1-1h1v15l1,1h3l2,2,2,1h2l1,1,4,1v-1l-2-1v-2h5l2-1-1-2,2-2,2,1,2-2h5l1-1h4v-4l-2-1-1-2-4-1v-1l1-4,1-1-1-1-2-2-1,2v-2-2l-2-1,1-4,2-1v-3l-4-4h-2l-1,2-2-4-2,1-1,2,1,2h-1l-1-1-5-1-2-4v-2l-2-2-1-1-7-9-1-3-2-1-1-1z" class="land departement rhone-alpes departement38"/>

	<path id="D07" d="M417,318l-5,3-1,4h-3l-2,1h1l-2,4-2,1-1,2v3l1,1h-3v4h-3l-2,5h-4l-5,3-3,5h1l1,7,3,4v4l4,2v5l2-1,4,3,2,1,1-4h3v3l3-1,1-3,6,4,1-2,2-1,1-4h-1l-1-1v-1l1-1-1-2v-4l3-3v-4l-1-5h2v-2l2-4,1-2-2-4-1-4-1-5v-8h-1l-1-3z" class="land departement rhone-alpes departement07"/>

	<path id="D26" d="M426,319l-3,2-2,1-2-1v8l1,5,1,4,2,4-1,2-2,4v2h-2l1,5v4l-3,3v4l1,2-1,1v1l1,1h1l-1,4h3l1,1v4,1l3-3h3v-1l-3-1-1-3,2-3,3-1,3,3-3,3,1,2h4l2-2-1,3v2l4,1h5l1,2,3,2,2,1,2-2,1-3,2,2,1,1,1-7h-2l-2-3-6-2-1-3,3-1-2-2v-1h3l3,1,2-2-2-2v-2l1-4h4l3-2h1l-4-1-1-1h-2l-2-1-2-2h-3l-1-1v-15h-1l-1,1-1,1-5-1-3-1-1,1-1-1,1-3v-3l1-2-3-3h-2l-4-3z" class="land departement rhone-alpes departement26"/>

	<path id="D19" d="M311,298l-1,2-3,1-1,2h-2l-2-1-1,3h-3l-1,2h-2l-1,2-4-1-1,3-2-1-2,3h-2l-2,2,1,2,2,2-3,3v3h1l-1,2,2,2-2,2,2,1h4v4l1,2h1l4-2,5,3,4,5h2l3-4,1,2,2-2,3,1v1l3-2-1-2-1-1,1-2h2l1-3v-2-3l2-3,4-2v-6l2,1,1,2h2l2-1-1-2,1-4-1-3-1-1v-3l2-3-1-2v-1l-2,2h-4l-1,2h-2l-2-2-1-2h-5l-1-1h-1z" class="land departement limousin departement19"/>

	<path id="D23" d="M301,260l-1,3-3-1h-1-2l-2-1-3,4v3l-2,4v2l2,1,2,4,2,2-1,8,4-1,1,1-2,2v2h2,3l1-1h1l-1,2,3,1,3,2v1h-2l1,2,1,1,3-1,1-2h1l1,1h5l1,2,2,2h2l1-2h4l2-2-4-4-1-1,4-3,2-1,1-2,2-2-1-4-1-1-1-6-2-5-2-1-1-3-2,2-1-2v-2l-2-3-7,1-3-1-10-1z" class="land departement limousin departement23"/>

	<path id="D87" d="M285,262l-1,2h-5-1-3l-2,2v2h-5l-2,3-1,1,1,2v5l-1,2,1,1,3,1v2l1,2-4,1h-1v5l-2,1-2,1-1,3h-2v3h4l1,2-1,2,2,2h1l2-2h6l1,4,4,1,1,1-3,1,1,1,4,1v1l2-2h2l2-3,2,1,1-3,4,1,1-2h2l1-2h3l1-3,2,1h2l1-2-1-1-1-2h2v-1l-3-2-3-1,1-2h-1l-1,1h-3-2v-2l2-2-1-1-4,1,1-8-2-2-2-4-2-1v-2l2-4v-3h-1l-3-3z" class="land departement limousin departement87"/>

	<path id="D16" d="M253,276l-2,1,1,3-1,1-3-2-3,1h-3l-3-3h-1l-3,2-2,1v1l-2,2v1l-1,1-2,6v4h-2-2v-1h-3l-1,1h-2l-3,1,2,1v4h1l-2,2,2,1,2,2,2,2,1,2v2l-1,1,1,1v1l-2,2,1,1,1,1-2,1v1h1,4l2,2,1,1,4,3,1-1h4l2-1,3-4v-6l9-6v-5h3l2-3h1v-3h2l1-3,2-1,2-1v-5h1l4-1-1-2v-2l-3-1-1-1,1-2v-2h-2-3l-2,1-3,2-1-2-2-2z" class="land departement poitou departement16"/>

	<path id="D79" d="M229,222h-5l-5,1-5,1v2l-2,2-6-1-4,2,2,2v2l4,4-1,3,3,3-1,2,2,3v5l-1,1,2,3-2,2v2l2-1,2,1-3,2-1,1-2,1-2,1h-1l1,3,2,2v1l3,2,4,1,2,3h5l3,2,3,1v2l2,2,1-1v-1l2-2v-1l2-1,3-2h4v-2l-2-1-2-2,1-3,1-1v-3l-1-1-2,1v1,1l-2-2v-1-1l-1-1v-5h-1v-1l1-2,1-1v-3-1l-2-1,2-3v-2-1l-1-1v-1l1-1-1-1,1-2-1-2v-3-3l-2,1v-5l-1,1-1-1-1-2z" class="land departement poitou departement79"/>

	<path id="D22" d="M121,119l-2,2h-4l-1,2-3-3-4,3,1,2-2,4-1,5h2v2l1,1-1,2h-1v2l2,1-2,1v2l2,2v5l-1,1,1,3,3,1v1l2,1,1-2,1,1,4,2,3-2,1-1h2l3,2h3l2,2h1l1,1h2l1-1,1,2,2,1,3-2v-2l3-1h1l2,4h3l2-2,2-5,3-1,1-2,2,2,3-1,1-9,1-3-1-2h-2l-1-6-1,1h-4v2h-2l-1-3h-1l-2,1v-3l-2,1h-3l-2,2-7,4v2h-1v-4l-4-2v-3l-3-3v-3l-3-1v-3h-2v-2h-3l-1,2-1-3z" class="land departement bretagne departement22"/>

	<path id="D29" d="M92.7,125l-2,2-2.3-1-4.2,1-0.8,2h-2.4l-0.4-2-4.3,1v1h-3l-1.4-1-1.5,1-0.4,2-5.1,1-2.6,3,2.2,1-3,3,0.9,2-0.7,4h3l1.2-1,0.5,1,7.2-1,4.7-4-4.1,4,0.4,2,3.7-1-0.7,2h4.2l-0.2,2-4.6-1-3.6-1-4.3-2-2.7,3,3.4,2-0.1,5,0.9-1,2.1-3,3.9,2h1.9l0.8,3-1.1,2h-2.5-2.3l-3.7,1h-6.5l-1.3,2,1.9,1h2.1l1.7,1h2.4l4,5,0.9,5-1.3,2,4,1h4.3l1-2-1.7-2,1.7,1,1.7-1,3,2h1.9v-4l0.8,4,2.4,4h5.3l0.2-1,1.3,2h3.5,2v1l1-4h2l2-2h1v-3l1-1-2-2-1,1-2-1-5-1-1-3-1-4-0.1-1,2.1-2h2l4-1-1-3,1-1v-5l-2-2v-2l2-1-2-1v-2h1l1-2-1-1v-2h-2l1-5-3-2h-5.8v4h-1.5l-0.3-2h-2.3l-0.4-4z" class="land departement bretagne departement29"/>

	<path id="D35" d="M166,132l-2,2,1,6h2l1,2-1,3-1,9-3,1-2-2-1,2-3,1-2,5-1,1,1,2-1,3-2,2v1h1,3l2,2,2,2-2,2,1,2h2v2l-1,2-2,1h1v1l-2,2,2,3,4-2h12l1-2,2-2,4-1v-2h3l2,3,3,1,1-2,1-3,3-6,1-1h3v-5l-1-1v-6l-1-1v-3l2-2v-4l-1-1v-5l-1-1h-2l-2-1-2,2h-2l-2,2h-1l-3-3-2-4v-2h-9l-4-2,2-3h-4z" class="land departement bretagne departement35"/>

	<path id="D44" d="M182,180v2l-4,1-2,2-1,2h-12l-5,3v5l-5,2-4,2h-3l-1-1-2,2h1l-4,4h1l1,2-2,3,2,1h3l1-1,2,3h3l3-3h3l-4,2,1,1v2l-2,2h-2v3l5-1,4,5,4,3,1,1,3,2h2l1,3,4,1,3,1,1-2-1-2-1-4,2-2h1l1,2v3l1,1,3-1,1-3-2-2h3l1-2,2,1,2,2h2v-2l-2-2h-1-1v-1-1l2-1,1-2-1-1v-2h-2l-2-3v-2l2-1,4-1,6,1,2-2-1-4-3-2h-3l-1-1v-2l2-3-1-2-2-3-2-2v-2l-3-1-2-3h-3z" class="land departement pdll departement44"/>

	<path id="D70" d="M463,170l-3,1-1,2-2,1-1-2-1,1,1,1-2,1,1,2h-3v3h-2v1l-3,1v2h2l-1,2-1,3h-1l-3,1-3-1-3,1v2l2,1,2,3v1l-2,3-2,1,2,1v3l2,1v3l1,1v1h1l2,2h2l1-1h2,2l3-3h2l1-1h4l3-3h2l1-2,1-1,2-3,3-2h2l2,1h4v-2l1-1,1-1h2l2-2v-3-1l-1-3v-3l2-1,1-1-6-3-1-2-2-1h-2v2h-1-1l-3-3h-4l-2,2h-1l-3-2v-2l-1-1z" class="land departement franche-comte departement70"/>

	<path id="D76" d="M288,59.7l-2,1.5-8,6.2-14,3.6-10,3.4-7,4.2-5,6.8-1,5.3,4,2.8,5,1.2v0.1,0.2l4-0.6,2-2.3,2-0.4,2,3.3,2-0.3,1,1.9,5-0.3,4,3.3-3,0.4,3,2h1l1,3h2l1-2-2-1,5-1,5-1,1-3.4,2-2.1,5-0.1,5,2.6,3,0.3v-1.6l2-2.4v-1.3h-1v-3.3l-2-1.9,1-3.7,1-1.9h-2l1-1.9,2-2.3-2-3.4v-3.4l-9-8.1-1-1.9-2,0.2-1-0.7z" class="land departement haute-normandie departement76"/>

	<path id="D27" d="M258,91.7l-2,0.4-2,2.3-4,0.6v7l2,1-2,1,3,4,1,4v2l-2,1v2h2v2l-1,4,1,2h6l1,3,2,2,2,1,1,3-1,2,2,1,3-2h3l7-4,2,1h5l1-1v-3l4-2v-3l1-1-1-1,1-1h-1v-1l-1-2,1-1,5-1,1-3,1-4,2-2v-2l2,1h1l-1-2v-4l-2-1.6v-0.1l-3-0.3-5-2.6-5,0.1-2,2.1-1,3.4-5,1-5,1,2,1-1,2h-2l-1-3h-1l-3-2,3-0.4-4-3.3-5,0.3-1-1.9-2,0.3-2-3.3z" class="land departement haute-normandie departement27"/>

	<path id="D37" d="M259,191v1l-5,1-2,2-2-1,1,3h-2l-4-2-1,3v2,1l-1,2v4l-3,4-2,8,1,3h3v3l5,1v4,2h5l5-1v-2l1-1,2,2h1l1,5,3,3,1,3,3,3h1l2-2,2-8,1-3,1-3,3-1h2l1,2,1-3,2-1v-2h2v-2l-2-2h1l-1-1-3-5h-4l-1-1v-7l-1-4-1-5h-2l-2-2-2,2-1-1-1-2,2-1-1-1h-9z" class="land departement centre departement37"/>

	<path id="D18" d="M320,195l-3,1-2,2v1h3v3h2l-1,1v2l-2,1-2,4v1l1,1v1l-2,1-4,1-1-1h-1l-1,1v3h-2l-1,2-2,2,2,2h3l2-1h2l1,1v3l2,2v2l-1,1v1l1,1h2v1l-2,2v1l-1,1v1l2,1v1l-2,1v2l3,1v2l2,2-1,1v2,1l1,2v2l-2,2v1h5v-2l3-3,5-1,2,1,3-2v-2h-1v-3l5-6,2,3,1-2h2l2-4,5,1v1l1-5-1-2,1-2v-5l-2-2v-5l-1-4-1-2-3-3-1-2,2-3v-3l-2-3-2,1h-1l-1-2h-1-1v3h-1l-1-1-2-3-1-1h-3l-1-2h-2v1h-2l-2-1-2-1z" class="land departement centre departement18"/>

	<path id="D58" d="M350,197l-1,2h-1l-3-1-2,1v2l2,3v3l-2,3,1,2,3,3,1,2,1,4v5l2,2v5l-1,2,1,2-1,5v1l3,2,2,2,3-1,1-1,1,1h3v-1l2,1,1,2h1l4-5,2,1v1l3-2h1l1,2h2l1-1h2l1-2h2v-1h3v-1l-1-1v-1l2-1v-1l-2-1v-2-2l-1-1,1-1,1-1v-2h-1l-1-2,2-2,2-1h3v-2h1v-1l-2-2-2-1-1-1v-2-2-1l-3,2-1,1-2-2v-2h-2l-1,1-1-2,1-1-1-1-1,2v1h-2l-4-4h-3v-2l-3-2v-1l-1-1v4h-1-2l-2,1h-1l-1-1-1,1-2-2h-2l-1-1v-1l-1-2h-2z" class="land departement bourgogne departement58"/>

	<path id="D71" d="M394,221h-3l-2,1-2,2,1,2h1v2l-1,1-1,1,1,1v2,2l2,1v1l-2,1v1l1,1v1h-3v1h-2l-1,2h-2l-1,1h-2l-1-2h-1l-3,2,3,6v3l1,1h4l1,2h3l1,2v7l-4,3,1,1v3h3v1h2l2-1,6,1,1,1,2-1h2l1-6,1-1h1l3,2,1-2,2,2,1-2h2l1,3,1,4h1l2-3,3-14,1-2,2-1,3,2h1l2-2,2,1,1,2,1,1,5-1,2-1-1-2h-2v-3l2-1v-4l-1-3-1-1v-1-2h-1l-1-2,5-1v-1h-1l-1-1h-3l-1-3h-2v-3h-1l-2,2h-3l-1-1h-2l-1,1h-1l-4,1-6,2-2-1-3-1v-2l-2-2-4-3-4,1-3-4z" class="land departement bourgogne departement71"/>

	<path id="D60" d="M302,77.8l-1,1.5-1,1.9h2l-1,1.9-1,3.7,2,1.9v3.3h1v1.3l-2,2.4v1.7l2,1.6v4l1,2h-1l-2-1v2l1,2,1,2h5,3l3-2,3,2,1,1,3-1h2l4,2,4,2,1,1,2-1,2,1,1,1h2l1-2,3,2,3-2,2,1,2-1,1-1,1-2-1-2-3-1-1,1-1-3h2v-3h-2l1-2,3-1,1-4.3,2-0.8-2-1.8v-1.7l1-5.7-1-4.5-4,0.4-3-0.3-5,1.3-4,4-4-1.1-3-0.4-3-2.7-4-1.4-7,0.6-2-1.3h-3l-3,1-1-0.8v-2.1-0.6h-3z" class="land departement picardie departement60"/>

	<path id="D62" d="M314,8.5l-10,2-9,6.4v25.6,0.7l3,0.7,1,2.1,2-0.6,2-1.7,1,0.6,4,2.8,1-0.5,1,2.2,4,1.6v1.8l2,1,3-1,4-0.5,1,0.9,3-0.9,1,1.9-3,1.8v2.7l1,0.9,1-0.1v-1.6l2-1.1,2,1.3,4,1.4h1v-1.9l3,1.7v1.5l-1,1.7,2-1.2,2-0.7v1.3,1.3l3-1.5h5v0.2l1-2.1v-1l-2-0.4h-2l-1-0.4,2-1.1,1,0.2,2-0.2v-3.1l1-0.8,1-1.7-2-1.3-3-0.2-1-0.4,2-1.2v-1.1l-1-1-2-2.3v-1.1l3-1.2v-1.3l-2-0.8-1-2.5-3-0.4-3-0.9-1-3.9,3-1.5-1-1.9h-2l-2,2.1-6-0.4-4-1.2-3-2.8v-2.3l2-1-2-1.3-4-0.2-2-6.4-4-5.7z" class="land departement npdc departement62"/>

	<path id="D59" d="M330,4.05l-6,2.85-9,1.51-1,0.09,4,5.7,2,6.4,4,0.2,2,1.3-2,1v2.3l3,2.8,4,1.2,6,0.4,2-2.1h2l1,1.9-3,1.5,1,3.9,3,0.9,3,0.4,1,2.5,2,0.8v1.3l-3,1.2v1.1l2,2.3,1,1v1.1l-2,1.2,1,0.4,3,0.2,2,1.3-1,1.7-1,0.8v3.1l-2,0.2-1-0.2-2,1.1,1,0.4h2l2,0.4v1l-1,2.1,1,1.5,2,0.4,1-1h3v1.2l1-0.2,2-1.3,2,1.3,3-2.1h2l1,1.4,3-2.1,2,0.2,1,0.9,4,0.4v1.7l2-1.9h2v2.5l4,0.9,1-0.7-1-1.9,4-2.3v-3.6l-4-0.9,1-1v-2.6l3-2.1-1-1.5-6-4.7-11,0.6-1,1.8h-1v-6.6l-3-3.6-2,0.4-1-1.5-4,1.7-2-1.3-2-0.4-1-2.5v-7.5l-2-0.8v-1.1h-1l-1-2.3-2,0.2-5,1.5-2,2.8h-2l-2-1.8v-2.1l-2-2.1h-3l-1-2.1v-3.2l1-2.1v-2.81l-3-4.94z" class="land departement npdc departement59"/>

	<path id="D02" d="M371,60.4l-3,2.1-1-1.4h-2l-3,2.1-2-1.3-2,1.3-1,0.2v-1.2h-3l-1,1v2.7l-2,2.7v2.5l-2,1.9,1,2.3,1,3.8,1,6.6-1,5.7v1.7l2,1.8-2,0.8-1,4.3-3,1-1,2h2v3h-2l1,3,1-1,3,1,1,2-1,2,2,1,1,5,5,5h2l1,2,3,1,1-3,3-1,1-4,2-1-1-1h-2l-1-2h2l1-1-2-2,1-1,4-1-1-1-2-2v-5l3-2.9h4v-1.8l2-1,3,2.1,2-0.4-1-6.4,1-2.3,1-2.6-3-1.4,1-1.5,3-0.7v-2.5l3-1.5,1-2.3-1-1.5v-2.8l2-1.5-2-3.2,1-3.4h-4l-1,0.7-4-0.9v-2.5h-2l-2,1.9v-1.7l-4-0.4-1-0.9-2-0.2z" class="land departement picardie departement02"/>

	<path id="D80" d="M295,43.2v6.2l4,3.8v1.9l-5-3-6,7.6,1,0.7,2-0.2,1,1.9,9,8.1v3.4l2,3.4-1,0.8h3v0.6,2.1l1,0.8,3-1h3l2,1.3,7-0.6,4,1.4,3,2.7,3,0.4,4,1.1,4-4,5-1.3,3,0.3,4-0.4v-2.1l-1-3.8-1-2.3,2-1.9v-2.5l2-2.7v-2.7l-2-0.4-1-1.7h-5l-3,1.5v-1.3-1.3l-2,0.7-2,1.2,1-1.7v-1.5l-3-1.7v1.9h-1l-4-1.4-2-1.3-2,1.1v1.6l-1,0.1-1-0.9v-2.7l3-1.8-1-1.9-3,0.9-1-0.9-4,0.5-3,1-2-1v-1.8l-4-1.6-1-2.2-1,0.5-4-2.8-1-0.6-2,1.7-2,0.6-1-2.1-3-0.7z" class="land departement picardie departement80"/>

	<path id="D54" d="M442,85.8l-2,2-3,0.2-1,1.2h-1v2.2l1,1.9v1.1,1.3,0.7l1-0.7,1-1.6,2-0.2,3-1,1,1.3,1,1.5,1,1.7v1.6l1,0.8v1.2l-1,1-1,3,1,1v1l1,3,1,1h1v2l2,2-2,2v1l2,1v1h-2l-1,1v1l2,2-2,3-1,3v2,4l1,1h1l1,1h-2l-1,1v1l2,2v2h1,3v3h2l-2,1v1l2,1,1,1h6l2-2h3l1-1,2,1,1-1h3,2l2-2,1,1v-2l1-1,1,2,2,1h3,1l3-1,1-1,2-2,3-1,2-1-1-1,2,1v-1l-2-1-3-2-3-2h-3l-4-2h-3v-1l-4-2-5-2h-2l-1-3-4-5h-3l-2-2h-3v-3l-4-2,1-2h2v-3-1l-1-2,1-2-1-3.2-1-0.8-2-5.1,1-1.5v-2.9h-3l-3-3.7h-5z" class="land departement lorraine departement54"/>

	<path id="D77" d="M351,113l-1,1-2,1-2-1-3,2-3-2-1,2h-2l-1-1-2-1-2,1-1,6,1,6v5l-1,3v3l-1,1,1,5-1,1-1,5,2,2-5,3v4l1,1,3,2v3l-3,2,2,1,2-1h5,2v-2l2,1,1,1,4-3,2-2,2-2-1-2,1-3,4-2,7,1,2-2v1-4l1-3,1-2,1-2,2-1v-2h-3v-1l1-2-1-3-2-1,1-2,1-1v-1l1-1-3-1-1-2h-2l-5-5-1-5-2-1z" class="land departement idf departement77"/>

	<path id="D91" d="M319,132l-2,1-2,1v2l-3,1v2l1,2-2,3h-2l1,2-2,1v3h1v3l1,5h6l2-2,2,1,6,1v1-4l5-3-2-2,1-5,1-1-1-5,1-1v-2l-2-1h-4l-2-1h-1l-3-2z" class="land departement idf departement91"/>

	<path id="D95" d="M301,106l-2,2-1,4-1,3,4,2,4-1,4,3h5l3,2,1,3,4-2h5l3-2,2-1v-4l-1-1-4-2-4-2h-2l-3,1-1-1-3-2-3,2h-3-5l-1-2-1-2z" class="land departement idf departement95"/>

	<path id="D93" d="M64.8,8.84l-5.8,4.16-9.2,4.2-16.7,1.1,0.5,2.3,1.4,0.3,1.3,2-1.3,2.8-1.7,0.3,1.2,2.8h8l2.6,3.9,0.5,5.6,2.8-0.4,2.6-2.1,3.9,0.2,4.9,2.8,2.7,3.1,1.3,0.6,0.8,1.5,3.1,0.8v-9.1l-3.7-21.9,0.8-4.96z" class="land departement idf idfbig departement93"/>

	<path id="D75" d="M42.5,28.8h-8l-3.6,1.6-1.5,2-3.3,0.2-3,3.4,0.1,1.9,0.7,2.2,5,1.4,6.1,3.1,3.8,0.2,2.6-0.7,2.7-1.9,0.9,0.8,5.8,0.8,1-2.1v-2.1l-1-0.4-4,0.2,0.3,1-0.7,0.6h-1.3l0.5-1.3,0.2-1.4h-0.2l-0.5-5.6-2.6-3.9z" class="land departement idf idfbig departement75"/>

	<path id="D25" d="M487,194h-1-2l-1,1-1,1v2h-4l-2-1h-2l-3,2-2,3-1,1-1,2h-2l-3,3h-4l-1,1h-2l-3,3h-2v1,2l3,1,1,2v2l-2,3v2l5,2,3-1,1,3v4l4,1,2,1,2,3v2l-1,1-4,2,1,1,1,2-2,1v2h3l11-11v-9l4-2,3-2,3-2v-4l2-1,7-7-1-2,2-1,2-3-1-2-5,1,4-5-11-5z" class="land departement franche-comte departement25"/>

	<path id="D90" d="M490,180l-1,1-2,1v3l1,3v1,3l-1,2,11,5,1-1h2v-4l-1-3-3,1v-2l1-2v-2-2l-4-2-3-1-1-1z" class="land departement franche-comte departement90"/>

	<path id="D01" d="M424,254l-2,1-1,2-3,14-1,1v5l-1,1v6l-1,2,4,2h1l2,2,1,4,2-1,4,1v-1h2l3,3,2-2,1-3,2-2,1,1,2,1,1,3,7,9,3-2v-3l3-1v-6l1-1v-5h1v-2l-1-2v-5l2,1,1-2,2-1,2-1h-2v-4l2-1h3v-2l-1-1,3-4v-1l-4-2-7,9h-6v-2l-3-2-4,4-2,1v-3l-3-1-4-5-3-2-1-2-2-1-2,2h-1l-3-2z" class="land departement rhone-alpes departement01"/>

	<path id="D74" d="M485,258l-4,1-4,3-1-2-2,1-2,4v1l2,2-4,3-2,2h-4l-2,1-2,1-1,2-2-1v5l1,2v2l1,1v6h4l1,3h4v-1h2l3,3,1,1h3l1-2,1-3,2-2,1-4,2-1h1l1,1-1,2,2,2h3l2,3-1,1,2-1,1-2h2v-3l6-3,1-2v-4l-5-4-1,1v-2-3l-4-2v-1l2-2v-3l-3-4v-2h-7z" class="land departement rhone-alpes departement74"/>

	<path id="D42" d="M382,269l-3,1-1,2,1,3,1,10-5,1v1l3,3-2,1v5l2,3,2,5,5,3,2,6-4,3,1,3,5,1,4-3h2l6,2v4h3l2,3,2-1h3l1-4,5-3v-6h-2l-2,1-2-1,3-3-1-2-6-1-6-5v-1l1-1v-2l-1-1,1-2v-2l-2-2v-3l-2-1v-2l-1-3,2-2v-3h4l1-1-2-2v-2l-1-1v4h-2l-2,1-1-1-6-1-2,1h-2v-1h-3v-3l-1-1z" class="land departement rhone-alpes departement42"/>

	<path id="D73" d="M457,285v5l-1,1v6l-3,1v3l-3,2,1,1,2,2v2l2,4,5,1,1,1h1l-1-2,1-2,2-1,2,4,1-2h2l4,4v3l-2,1-1,4,2,1v2,2l1-2,2,2,1,1h3l1,1,1,3,3-1,1-3h2,3l6-3,2,2h2v-3l3-1,1-1,4-2,1-3-1-2,3-4-3-1-1-3-5-3s1-6,0-7c-1,0-4,1-4,1l-2-4v-3h-2l-1,2-2,1,1-1-2-3h-3l-2-2,1-2-1-1h-1l-2,1-1,4-2,2-1,3-1,2h-3l-1-1-3-3h-2v1h-4l-1-3h-4v-6l-2-1z" class="land departement rhone-alpes departement73"/>

	<path id="D17" d="M198,262h-3l-6,4,2,1-3,3-1,2h-2l-2-2h-4v-2l-2-2-4,2,3,3h2l3,1,2,2h4l1,1,2,1,1,3h2v3l-2-1-1,1,1,3v4h-3v2l1,1h-3v-1l2-2-1-2-1-1v-4h-3l-3-4v7l4,3v4l1,4v4h3l4,3,2,2v1l3,1,6,6,1,6h6,1v2l5,1v6h3l4,5h3l2-1,2,1,2-3,1-3-4-3-1-1-2-2h-4-1v-1l2-1-1-1-1-1,2-2v-1l-1-1,1-1v-2l-1-2-2-2-2-2-2-1,2-2h-1v-4l-2-1,3-1h2l1-1h3v1h2,2v-4l2-6-2-2v-2l-3-1-3-2h-5l-2-3-4-1-3-2v-1l-2-2-1-3-2-2-4,1-1-3z" class="land departement poitou departement17"/>

	<path id="D86" d="M236,219l-3,3-1,2v5l2-1v3,3l1,2-1,2,1,1-1,1v1l1,1v1,2l-2,3,2,1v1,3l-1,1-1,2v1h1v5l1,1v1,1l2,2v-1-1l2-1,1,1v3l-1,1-1,3,2,2,2,1v2h-3l3,3h3l3-1,3,2,1-1-1-3,2-1,2,2,1,2,3-2,2-1h3,2v-3l-1-2,1-1,2-3h5v-2l2-2,5-1v-3l-2-1-1-4h-3l-2-2-4-3,1-2v-4l-3-3-1-3-3-3-1-5h-1l-2-2-1,1v2l-5,1h-5v-2-4l-5-1v-3h-3l-1-3h-2z" class="land departement poitou epartement86"/>

	<path id="D50" d="M169,75.2l-1,1.9,4,3.2v4.2l-1,1.8,1,1v0.4,3.6l1,3,5,4.9,1,4.8,1,1v7l2,4v6l-3,4,3,7,4,1,1,2-3,1h-3v2l2,4,3,3h1l2-2h2l2-2,2,1h2l1,1,3,1,2-2,3,1,4-2,1-4-1-2,1-1-2-2-5-4h-4l-3-4,3-1,1-3-1-1,1-1,1,1,3-2,1-2,1-3-1-2,1-1-2-2,2-2-2-2-1,2-2-1-4-4v-1.2l1-1.1v-2l-2,0.4v-4.5l-5-5.9,1-3.8h2l-1-5.1-9-0.4-4,3.1-5-3.2-7-2.1z" class="land departement basse-normandie departement50"/>

	<path id="D49" d="M191,183l-1,1v2l2,2,2,3,1,2-2,3v2l1,1h3l3,2,1,4-2,2-6-1-4,1-2,1v2l2,3h2v2l1,1-1,2-2,1v1,1h1,1l2,2v2l2,1h5l2,2,4-1,6,1,2-2v-2l5-1,5-1h5l1,2,1,1,2-3,3-3h2l2-8,3-4v-4l1-2v-1-2-1l-2-1-8-5-8-2h-3v-2l-1-1h-2l-4-1-2,2h-5l-2-1-6-2-1,2-3-2h-3l-3-1z" class="land departement pdll departement49"/>

	<path id="D72" d="M249,147h-5l-5,5h-3l-3,1-1,2-1,4,1,3-3,2-1,1,1,2-1,2-3,1v1l1,4v1l-1,1h-3v1,1,5,2l1,1v2h3l8,2,8,5,2,1,1-2,4,2h2l-1-3,2,1,2-2,5-1-1-3,2-1,2-1,3-4v-3h2l1-3v-4l-2-2,2-2,2-3-3-2-2-1-3-4h-1v2-1h-4l-2-3-3-1-1-7-2-2z" class="land departement pdll departement72"/>

	<path id="D61" d="M254,121l-4,1-1-1-4,1v1h-1l-1-2-1,1-3,2-3,3-4,1-3-2-4,1-2-2-2,1-4,2-4-1-2,3-4,1,2,2,2,2-1,1,1,2-1,4-4,2,2,2,2,2,2-2,2,1,5-3,6,1,2-1,1-2h2l2,1,1,5h2l1,4h3l5-5h5l2,2,1,7,3,1,2,3h4v1-2h1l3,4,2,1v-5l-2-1v-2l3-2h3l2-2-1-7-4-4v-3l-3-2,1-2-1-3-2-1-2-2-1-3h-6l-1-2,1-2z" class="land departement basse-normandie departement61"/>

	<path id="D28" d="M293,122l-1,1v3l-4,2v3l-1,1h-5l-2-1-7,4h-3l-3,2,1,1v3l4,4,1,7-2,2h-3l-3,2v2l2,1v5l3,2-1,1,2,1,3-1h1v1l-1,1,1,1h2l1,2,2,1,1,3,4,1h3l2-3,2,1,1-1v-1l1-1,2,1,1-1v-1l1-1h2l1,2,2-2h2l2-1,1-4h1v-4l2-1-1-1v-1l-1-5v-3l-4-1-2-2v-4h-3v-2l-3-2-1-3,1-3-1-1v-2l1-2-2-2v-2l-2-2z" class="land departement centre departement28"/>

	<path id="D89" d="M362,152l-2,2-7-1-4,2-1,3,1,2-2,2-2,2,4,4,1,3,2,2v4l-5,4,2,2v3l-3,1h-4l1,3,2,3,1,3v2h-1l3,1h1l1-2h2l1,2v1l1,1h2l2,2,1-1,1,1h1l2-1h2,1v-4l1,1v1l3,2v2h3l4,4h2v-1l1-2,1,1-1,1,1,2,1-1h2v2l2,2,1-1,3-2-2-2v-1l2-1v-1-1-3l1-2,3-4v-2l1-1v-1-2l2-1v-3-1h-2v-1-2l2-2-1-1v-1l-1,2h-1l-1-2-4,1h-8l-1-2-2-3v-3l-3-4-2,1-3-2v-5l-5-5h-2l-1-2z" class="land departement bourgogne departement89"/>

	<path id="D45" d="M318,156l-2,2h-6v1l1,1-2,1v4h-1l-1,4-2,1h-2l-2,2-1-2h-2l-1,1v1l-1,1-2-1-1,1v1l-1,1h1,1v1l-1,2v1h1l1,1,1,1-3,2,1,3v1l2,1,3,1,1,1,1,2,1,2h2l1-2h3l1,1h2l1-1h7l1,3,2,1,2,1h2v-1h2l1,2h3l1,1,2,3,1,1h1v-3h1,1l1,2h1l2-1v-2l3-1v-2l-1-3-2-3-1-3h4l3-1v-3l-2-2,5-4v-4l-2-2-1-3-4-4-4,3-1-1-2-1v2h-2-5l-2,1-2-1,3-2v-3l-3-2-1-2-6-1-2-1z" class="land departement centre departement45"/>

	<path id="D36" d="M300,215h-1-3l-3,1v1h-4l-1,1-2,1h-1l2,2v2h-2v2l-2,1-1,3-1-2h-2l-3,1-1,3-1,3-2,8-2,2h-1v4l-1,2,4,3,2,2h3l1,4,2,1v3l-2,1h1,5l1-2,3,3,4-4,2,1h2,1l3,1,1-3,10,1,3,1,2-1v-1l2-2v-2l-1-2v-1-2l1-1-2-2v-2l-3-1v-2l2-1v-1l-2-1v-1l1-1v-1l2-2v-1h-2l-1-1v-1l1-1v-2l-2-2v-3l-1-1h-2l-2,1h-3l-2-2,2-2,1-2-3-2-2-1z" class="land departement centre departement36"/>

	<path id="D51" d="M380,96.3l-2,1v1.8h-4l-3,2.9v5l2,2,1,1-4,1-1,1,2,2-1,1h-2l1,2h2l1,1-2,1-1,4-3,1-1,3-1,1v1l-1,1-1,2,2,1,1,3-1,2v1h3v1h1l3,3,5-1,5-3h3l4-2,4-3,2,1,1,3,3,6h4l6-2,3,2,4-3,1-5,4-1v-3l-3-2-1-2,2-2-1-1,1-3,2-1,1-5-3,1,2-2-1-5-2-2,2-2h-1v-1l-2-2-2,2h-1v-1h-5l-1,1h-1l-1-2h-3-3l-3-2-2-1-1-1.1-4-2.5-4-0.1v1.7l-2,0.4-3-2.1z" class="land departement champagne departement51"/>

	<path id="D08" d="M409,54.2l-2,2.8-1,1.7v1.7,2.3l-3,1.5-4,1.3-2,1-3-2.1h-3l-1,3.4,2,3.2-2,1.5v2.8l1,1.5-1,2.3-3,1.5v2.5l-3,0.7-1,1.5,3,1.4-1,2.6-1,2.3,1,4.7,4,0.1,4,2.5,1,1.1,2,1,3,2h3,3l1,2h1l1-1h5v1h1l2-2,2,2v-1l2-1,1-1-1-2.3v-1.3l2-1.7,1-3.8-2-2.8v-1.4l2-3.5,1,0.7h3l1,1.3,2-1.1,1-2.2-1-0.2-1-3.8-2-1.1-5-0.6-1-2.5-1-1.1-7-0.7v-4.4l1-0.7v-1.7l-3-1.9v-2.1l1-1.9-1-1.2,2-1.8v-3.5l-1-0.5h-3z" class="land departement champagne departement08"/>

	<path id="D52" d="M420,135l-4,1-1,5-4,3-2-1-1,2v3l4,5,3,1,1,4v7l-1,2h-4l-2,2,2,1v2l3,1,3,4,4,6-2,3,2,1v3h3l1,1h2l2-1,3,4v1l4-1,1-2v-2l3-1,3,1,3-1h1l1-3,1-2h-2v-2l3-1v-1h2v-3h3l-1-2h1l-2-2-2,1v-4l-6-2,2-5,1-2v-1l-3-1v-2h-3l-2-4h-3l-2-2,2-2-4-4h-2l-4-3-3-2-3-1-1-4z" class="land departement champagne departement52"/>

	<path id="D67" d="M519,109l-4,1-1,3v3l-2,1h-1l-3-2-2,2h-2l-2-2-3-1-2-1-1-3-2,2-1,5h-2v3l2,1,2,1-1,2,2,1,3-2,5,3-2,4v1l2,2-1,4-4,4-2-1,1,2-1,3,1,5,4,1-1,1h3l2,2,1,2,4-1,2,5,3,1,5-10-1-5,2-8,1-6,5-4v-2l2-2h1l2-2-1-3,2-5h3l-3-3h-5l-4-2-3,2-1-2h-2z" class="land departement alsace departement67"/>

	<path id="D68" d="M504,152h-3l-1,4-3,4,1,3-2,5-3,2v8l-3,2,1,1,3,1,4,2v2,2l-1,2v2l3-1,1,3v4l3-1-1,2,2,1h7l3-3v-4l2-2-2-3-1-3,1-2v-5l1-2v-4l2-2-2-3v-6l-3-1-2-5-4,1-1-2-2-2z" class="land departement alsace departement68"/>

	<path id="D57" d="M463,87.7l-3,0.1-2,2-1,0.9h-3l-1-1.2v2.9l-1,1.5,2,5.1,1,0.8,1,3.2-1,2,1,2v1,3h-2l-1,2,4,2v3h3l2,2h3l4,5,1,3h2l5,2,4,2v1h3l4,2h3l3,2,3,2,2,1,4-3,1-4-2-2v-1l2-4-5-3-3,2-2-1,1-2-2-1-2-1v-3h2l1-5,2-2,1,3,2,1,3,1,2,2h2l2-2,3,2h1l2-1v-3l1-3-1-2-4-2-2-2h-4l-3,3h-6l-2-2-2-2c-1,0-3-1-3-1l-3,1v2l-3,1-2-4h-1v-3l-3-1.1v-4.6l-2-1.9-4-1.9h-2v0.4h-2l-3-2.2z" class="land departement lorraine departement57"/>

	<path id="D88" d="M498,141l-2,1-3,1-2,2-1,1-3,1h-1-3l-2-1-1-2-1,1v2l-1-1-2,2h-2-3l-1,1-2-1-1,1h-3l-2,2h-6l-1-1-2-1v-1l2-1h-2v-3h-3-1l-1,2-3,1v-1h-1v1l-4,1v1l-3,1-2,1,2,2h3l2,4h3v2l3,1v1l-1,2-2,5,6,2v4l2-1,2,2,1-1-1-1,1-1,1,2,2-1,1-2,3-1,1,1v2l3,2h1l2-2h4l3,3h1,1v-2h2l2,1,1,2,6,3,3-2v-8l3-2,2-5-1-3,3-4,2-5-4-1-1-5,1-3v-1z" class="land departement lorraine departement88"/>

	<path id="D78" d="M297,115l-5,1-1,1,1,2v1h1l-1,1,1,1,2,2v2l2,2-1,2v2l1,1-1,3,1,3,3,2v2h3v4l2,2,3,1v-3l2-1-1-2h2l2-3-1-2v-2l3-1v-2l2-1,2-1-1-2-2-3,2-3-1-3-3-2h-5l-4-3-4,1-4-2z" class="land departement idf departement78"/>

	<path id="D92" d="M33.1,18.3l-11.2,6-1.2,0.2-5.5,11.9,3.5,9.5,5.6,6.3v0.6l8.7,6.1,2.1-1.1-1.6-3,1.6-4.6-1-1.7,1.1-3.9h-0.2l-6.1-3.1-5-1.4-0.7-2.2-0.1-1.9,3-3.4,3.3-0.2,1.5-2,3.6-1.6-1.2-2.8,1.7-0.3,1.3-2.8-1.3-2-1.4-0.3-0.5-2.3z" class="land departement idf idfbig departement92"/>

	<path id="D974" d="M189,501h-3-1l-1,1-2,1-2,1-1,1v2h-1c0,1-2,1-2,1v2l1,2,1,2h1v3l2,2,1,2,3,1,3,2,2,1h3l2,1h1,3,2l2-1,2-1-1-3,1-1v-1l1-1,1-2v-1l-1-1-2-1-1-1c-1,0-2-2-2-2s-1-2-1-2v-3l-1-1-2-1s-2-1-2-1h-3-2l-1-1z" class="land departement dom departement974"/>

	<g id="mayotte" transform="translate(-7.6293945e-6,0)" class="land departement tom mayotte">

		<path id="path5886" d="M246,527h-1-1v1c0-1,0-2-1-2,0,0-1,0,0,1h-1v1c-1,0-1,0-1-1-1,0-1,1-1,1v-1l-1-1v1-1l-1-1h-1v-1h1v-2s-1,1-1,0l-1-1v-1h1,1v1l1,1h1l1,1h1v-1-1-1h-1v-1c-1,0-1,0-1-1l-1-1c-1,0-1,0-1-1h-1,1v-1h1l-1-1v-1-2h1-1v-1-1c-1,0-1-1-2,0v-1h-1-1v-1h-1,1v-1c1-1,0-1-1-1,0,0,1-1,1-1v-1h1,1v-1h1v-1-1h1c0-1,1-1,1-1,0,1-1,1-1,1s-1,1-1,1h1c1,0,0,1,0,1h1v1h1,1c0,1-1,1-1,1l1,1c0,1,0,1,1,1s1-1,2-1l1,1h1,1c0,1,1,1,1,1h1v1c1,1,0,1,0,2v1h-1c0,1-1,1-1,1l-1,1v1,1,1l1,1,1,1s0,1-1,1-1,1-1,1v1l-1,1h-1v1,1,1l1,1h1v1"/>

		<path id="path5890" d="M254,511l-1,1v1-1h-1v-1h-1v-1c1,0,1,1,1,0v-1h1v-1,1h1v1,1"/>

	</g>

	<path id="path2408" stroke-linejoin="miter" d="M517,544v-75l35-38h30" stroke="#333" stroke-linecap="butt" stroke-miterlimit="4" stroke-dasharray="none" stroke-width="1" fill="none"/>

	<path id="path3435" stroke-linejoin="miter" d="M4.95,493h270v54" stroke="#333" stroke-linecap="butt" stroke-width="0.918924px" class="dom" fill="none"/>

	<path id="path5327" stroke-linejoin="miter" d="M4.27,83.7h79.4v-80.3" stroke="#333" stroke-linecap="butt" stroke-width="1px" class="idfbig" fill="none"/>

	<text id="text2505" font-weight="normal" xml:space="preserve" font-size="10px" font-style="normal" font-stretch="normal" font-variant="normal" y="542.53876" x="7.5722885" font-family="Sans" fill="#000000"><tspan id="tspan2507" font-size="9px" y="542.53876" x="7.5722885">Guadeloupe</tspan></text>

	<text id="text2509" font-weight="normal" xml:space="preserve" font-size="10px" font-style="normal" font-stretch="normal" font-variant="normal" y="542.53876" x="66.464882" font-family="Sans" fill="#000000"><tspan id="tspan2511" font-size="9px" y="542.53876" x="66.464882">Martinique</tspan></text>

	<text id="text2513" font-weight="normal" xml:space="preserve" font-size="9px" font-style="normal" font-stretch="normal" font-variant="normal" y="542.38055" x="121.86009" font-family="Sans" fill="#000000"><tspan id="tspan2515" font-size="9px" font-style="normal" y="542.38055" x="121.86009">Guyane</tspan></text>

	<text id="text2517" font-weight="normal" xml:space="preserve" font-size="10px" font-style="normal" font-stretch="normal" font-variant="normal" y="542.53876" x="166.49937" font-family="Sans" fill="#000000"><tspan id="tspan2519" font-size="9px" font-style="normal" y="542.53876" x="166.49937">La Réunion</tspan></text>

	<text id="text2521" font-weight="normal" xml:space="preserve" font-size="9x" font-style="normal" font-stretch="normal" font-variant="normal" y="542.2619" x="225.19235" font-family="Sans" class="mayotte" fill="#000000"><tspan id="tspan2523" font-size="9px" font-style="normal" y="542.2619" x="225.19235">Mayotte</tspan></text>

	<text id="text2525" font-weight="normal" xml:space="preserve" font-size="9px" font-style="normal" font-stretch="normal" font-variant="normal" y="76.211243" x="11.724806" font-family="Sans" class="idfbig" fill="#000000"><tspan id="tspan2527" font-style="normal" x="11.724806" y="76.211243">Île-de-France</tspan></text>

	<path id="D94s" class="land departement idf departement94 idfsmall" d="M327,127l-1,1v1h-1,1v-1h1v1,1h-2v-1l-1,1h-2v1,1,1,1h1l2,1h4l2,1v-1l1-3v-2h-1v-1l-1-1-2-1h-1z"/>

	<path id="D93s" d="M331,119l-1,2-3,1h-5v1l1,1h-1v1h3v1l1,2,1-1h1l2,1,1,1v1h1v-3l-1-6v-2z" class="land departement idf departement93 idfsmall"/>

	<path id="D75s" d="M325,125h-3l-1,1h-1l-1,1v1,1h2l1,1h2l1-1v1h2v-1-1h-1v1h-1,1v-1l-1-2v-1z" class="land departement idf departement75 idfsmall"/>

	<path id="D92s" d="M322,122l-4,2-2,4,2,2,1,2,3,2v-1-1-1-1l-1-1h-2v-1-1l1-1h1l1-1v-1h1l-1-1v-1z" class="land departement idf departement92 idfsmall"/>

</svg>

