<?xml version="1.0" encoding="UTF-8" standalone="no"?>
<svg id="svgMap" 
	xmlns:rdf="http://www.w3.org/1999/02/22-rdf-syntax-ns#" 
	xmlns="http://www.w3.org/2000/svg" xml:space="preserve" version="1.1" y="0px" x="0px" 
	xmlns:cc="http://creativecommons.org/ns#" 
	xmlns:xlink="http://www.w3.org/1999/xlink" 
	xmlns:dc="http://purl.org/dc/elements/1.1/" msd-wheel="VM.Zoom.WheelCenter($event, $delta, $deltaX, $deltaY)"
   ng-attr-view_box="{{ VM.Zoom.ViewBox }}" viewBox="0 0 5880 5880" ng-attr-height="{{ VM.Zoom.Size.Lst[VM.Zoom.Size.Crt][0] }}" ng-attr-width="{{ VM.Zoom.Size.Lst[VM.Zoom.Size.Crt][1] }}" height="980px" width="980px">
	<defs>
		<clipPath id="land">
			<path ng-if="VM.Data.Layer.cLand" d="m5.03e3 2.47e3c-45.3 16-141 24-135 144 5.5 120-100 196-98.5 258 2 62 14 168 146 240s142-42 246-40 148-74 122-152-120-95.5-116-168c4-72.2 28-160-2-214s-128-80-162-68zm255 1.62e3 33.6 9.09 30.1-9.09 36.4 21.7 37.1-4.2 5.6-13.3 20.3-4.2 24.5-31.5h12.6l33.6-86-23.8-47.6-73.4-9.09-79-29.4-89.5-11.2-47.6 17.5-78.3 18.9v33.6l22.4 16.8-18.2 47.6 38.5 28 12.6 23.8-9.09 32.2 50.4 23.8 35.7-11.2zm-46.1-441 31.5-11.5s36.5-24.5 83-23.5l26.5 17.5 49-3.48 39.5 21 55.5-42 36-10.5 8.5-59-34-23-10-97-33.5-21.7-60.5 20.7-76-4.5-36.5-0.5-37.5 17.5-41.5 48.5v30.5l-20.5 34.5-2.5 22 21 38 2 46.5zm-307-151 29.5-4.5 36 7.5 19.5 7.5 25-5s51.5-17.5 59.5-33v-31l11.5-20.5-15.5-24-1.5-29-22.5-18.5 6.5-28.5-31.5-27.5-48 7.5-25.5-15-55.5 11-40 40-38.5 19 3.5 27.5 29.5 40 21.5 11 1 18 15 7.5 4 17 16.5 23zm501-597 39.8 11.3 33.5 20.5 16 37 32 24.5 28.5-34 33.5-12.7 29-40.8 11.5-69 30.5-49.5s-20.5-39-17-57.5 7-50.5 7-50.5l-40.5-77.5-42-47.5-34.7-9.5-27.3-11.5s-57.5-27.5-67.5-27.5-40 12.5-40 12.5l-43 26.5-51 66.5 19.5 40.5-14.5 58 12.5 12 3 25.5 35.5 24 42 79 7 24-3.33 25.7zm-400-669 41.8-9.33 42-34.5 62.5-16.5 43.5 7 71 19.5s46.5 1.5 87-23.5l8.5-26 20.5-15-3-25.5 25.5-50.5 21.5-12-2.5-83.5-27-59h-67l-36.5 24.5-73-4-56 20-46-2.5-43.5 43-74.5 35.5-71 3-59 58.5-2.5 52.5 31.5 64 88.5 20 17.7 14.3zm-2.9e3 -1.57e3 -12.1 48.2 37.2 39.2 36.2 57.3 43 25.1 34.7 52.6 26.7 39.3 43.3 25.3 45.3 25.3 53.3-28 99.3-9.33 43.3-35.3 44.7 12.7 39.3-2.67 52 22 56.6 8.66 46.7-49.3 37.3-77.3 26.7-42.3 12-43.7 44.7-20 30.7-38h31.3l24 30.7 74.6 19.3 71.3 7.33 48.7-6 52-18.7 91.3 0.667 51.3-2 55.3-34.7 36 26 41.3 5.33 42-20 36 6.66 42 12 18 14 70.6 15.3 42.7-35.3 34-29.3 111-18 46-36 63.3-6v-47.3l-30-76-23.3-62.6-2.67-48.6 27.3-44-24.7-28.7-103-22-73.3 22.7-68-22.7-44 15.3-72-15.3h-54.6l-114-12.7-85.3 33.3-57.3 24-60.6-5.33-50.6-32-70-15.3-112-0.666-55.3 14-54.6 1.33-78.6-13.3-103 32-94-16.7-42.7 36.7-16.7 39.3-81.3 36-90-26-82 28-35.3-31.3-76.6-8-84 95.3 3.33 33.3-19.3 33.3-57.9 53.3 40.2 44.2zm-938 569 73 11.5 31-7 30 17 21 28 27 10 32-7 31-23 65-29 15-35 25-18 21-29 10-69-65-51-59-8-59-53-121 10-69 47-11 31-69 6-33 75-6 45 25 37 40 23zm-508 561 74.9-22.7 51.3-88.7 62.1-64.1v-53.2l-87.8-20.7h-89.7l-65.1-34.5-32.5-49.3-71 13.8-82.8 63.1-20.7 71 15.8 77.9 18.7 88.7 36.5 53.2 97.6 15.8zm-488 1.53e3h44l22-8 36 13 64-18 36 18 58 6 35-18 20-50-14-31 51-71 55-65 40-15 24-32-6-42 18-44s-32.7-68.6-32.7-79.3 8.66-86.6 8.66-86.6l24-46.7 29.3-21.3 57.3-72.6v-28l22-68.6 16.7-82.6v-40.7s-28-62.6-34.7-72.6l-4-42s12-38.7 11.3-44.7l-0.666-6-9.33-32s16.7-56.6 26.7-70c10-13.3 43.3-48.7 47.3-60l-56.6 17.3-32.7-6-22.7-3.33-46-23.3h-67.3l-9.33 36.7-21.3 28 2 32.7-23.3 81.3-2.67 34-9.33 39.3 11.3 40s-43.7 46.7-44.5 58.6c-0.834 12-18.8 77.3-18.8 77.3s-40 48.6-49.3 52l-30 70s16 58 17.3 82.6c1.33 24.7-13.3 94.6-14 105-0.667 10.7-4.66 97.3-4.66 97.3s-46.7 70-49.3 80c-2.67 10-6.66 44.7-6.66 44.7l-22.7 39.3-36.7 32-13.3 44s-34.7 48.6-35.3 57.3c-0.666 8.66-4.66 20.7-4.66 20.7s-38.7 25.3-42 32c-3.33 6.67-12.3 41-12.3 41zm620 276-31.3-44.7-2.67-31.3-11.3-19.3-6-115-12.7-55.3 5.33-51.3-50.6-91.3-13.3-7.33h-10l-16.7 55.3 8.66 36.7-42 50.6v110l15.3 39.3-15.3 56 18 66 20.7 40 34.7 41.3 56.6-31.3zm-352 429 50.6-26.7 68.6-21.3 3.33-69.3-24.7-68.6 16-68.6-22-72.6h-46.7l-62-16.7-36-24-41.3 12-103 12.7-16.7 18.7h-28l22.7 54-14 74-24.7 74 90.6 52 12 48.6 30 46 54.6-30zm310-121 23.3 45.3 26 29.3 41.6 11.3 43-40.7 44-60-20-56.6 7.33-13.3-32.7-53.3h-32l-20.7 20-35.3-0.667-34.7 12.7-37.3 31.3 22 30zm125 394 40.2-22 47.7-6.91h57.8l41.4-35.8-35.2-65.3-67.2-22.6-18.2-31.4-30.8-6.91-23.9 40.8-2.51 26.4-11.3 14.4 1.26 17-33.3 39.6-34.5 52.7 41.4-9.42zm-253-25.7 59.6 32.6 70.9 41.4 16.3-45.2 5.02-45.8 67.2-59-6.91-23.2-46.5-13.2-21.3-27.6h-32.6l-66.5 15.7-23.2 10.7-26.4 37-47.1 20.1 30.8 16.3zm-185 35.8-34.2 33.9-61.5 22.6-71.6-42.1 11.9-35.2-24.5-37.7 22-20.7 27 10 32-13.2 33.3 3.77 55.2-8.79 20.7 40.2zm511 201 53.4-32.6 17-32.6-55.2-22-41.4 13.8-69.1-19.5-65.9 11.3-39.6-1.26-3.77 37.7 30.1 23.9 37 1.88 68.4 62.8 59-23.2zm-392 47.7-10.7 35.2-32 28.3 4.39 39.6-14.4 34.5-34.5-20.7-35.2-8.23-49-80.3 65.3-45.2 20.4-25.1 33-21.3 23.9 37zm911 122-45.3-10.7-45.3 5.33-48.7-8-75.7 26-60.9-4-46.7 8-43.3-16.7-49.3 16.7-39.3 31.3-46 12.7h-48.7l-53.3 126-4 65.3-18.7 64.6 13.3 40.7 28 28.7 37.3 12 26 26 15.3 78 25.3 30.7 1.33 40.7 42.7 18.7 40.7 7.33 23.3 29.3 65.3 50.6 49.3 10.7 32.7-5.33 93.3 28.7 34 36 41.3 20 40 38.7 49.3-24.7 52 4 63.3 20.7 34 16.7 62.6-4 100 16 48.6 35.3 29.3 39.3 57.3 20 105-24s65.3 32.7 105 24c0 0 40.7-27.3 92.6-34 52-6.66 102-20.7 115-20.7 12.7 0 92.6 17.3 92.6 17.3l108-3.33 40.7-19.3 36.7-5.33 26-32 34-18.7 44-3.33 33.3-16.7 38 22 42 8.66 50 38 131 23.3 77.3 3.33 68.6-14 64-2 52-45.3s126-21.3 187-63.3c0 0 86-8 122-17.3l80 3.33 60.6-20 68.6 8 59.3 20s59.3-9.33 68.6-11.3c9.33-2 16-4.67 16-4.67l40.7-24.7s26.7-43.3 43.3-53.3c16.7-10 53.3-30.7 53.3-30.7s-12.7-100-26-123c-13.3-22.7-42.7-78-43.3-82-0.667-4 0 2-0.667-4-0.666-6-18.3-69.7-54-95.3-40-28.7-98.6-20.7-98.6-20.7l-51.3-12-78.6 1.33-85.3-6.66-59.3 34.7-115 4.67-54.6 32-136 32-53.3 42.7-133 6s-76-39.3-88.6-43.3c-12.7-4-69.3-30.7-86-32.7s-102-22-122-20-73.3 28.7-73.3 28.7l-86.6 8.66-48 10-39.3 1.33-92.6 32-48-1.33-46.7 14s-30.7 4-56 6-37.3-0.666-37.3-0.666l-41.3 17.3s-56 54.6-68 68c0 0-70 39.3-144 58.6l-79.3 10.7-40.7 33.3-45.3 19.3-36.7-24s-43.3-9.33-52.6-6.66c-9.33 2.67-84 16.7-115 12 0 0 26-8.66 38-18.7s22-44 22-44l42.7-15.3 33.3 5.33 30-36 38-20.7-5.99-65.3-32.7-60.6-59.3 1.33-66-19.3-75.3-18.7-41.3 33.3-66 18-93.3-14.7-5.33-45.3 16-50-18-96.6v-56l-8-42.7 50-90.6zm147 228 129 38.7 73.3-6.66 63.3 6.66 59.3-22.7 62.6-16 62-22.7 62.6-16-20-42-23.3-16-18-35.3-2-34.7-44.7-36.7s-66-27.3-91.3-24.7c-25.3 2.67-28.7 0-28.7 0l-44.7-31.3-31.3 31.3-26 23.3-116 58.6-61.3 61.3-11.3 40.7 6.66 44zm1.25e3 -188-4.5-47-14.5-39v-49.5l19-41-16.5-39.5v-34l7-9 9.5-90.5-102 11.5-55 34.5s-84-7-101-5-21 2-21 2l-49-23s-41-5.5-43-4.5l-2 1s-21 35-25 37l-4 2s-69 45-83 49-49 8-49 8l-43 22.5-21.5 1-15 8-57-1-36.5-9.5-9 47.5 6 14-1.5 11 5.5 37 18.5 33-4 41 36.5 19.5 25.5 27 6 43 25.5 30.5 40.5-15 39.5 0.5 38.5-8.5 43.5 7.5 17.5-36 88.5-59 61-8 74.5 28 159-18 36 21zm19.2-3e3m-17.4 15.7 32.4 20.6 25.9 11.1s37 20.6 53.5 32.7c0 0 13.2 35.4 12.9 39.2l-3.86 38.1 11.8 35.4-1.13 40.1 72.4-18.4 34.5 3.4 26.5 16.8 34.3-44.2 16.3-13.2 6.12-26.8 18.1-33.3-3.4-40.4 24.5-41.7 31.8-44.7 0.908-30.4 22.9-23.4 22-14.1s14.7-35.6 18.1-54.9l-5.67-27.9-1.13-30.2s10.9-0.454 17.5-4.08c6.58-3.63 34.3-10.2 44-6.12 9.75 4.08 35.2 19.7 37.9 24.5 0 0-6.35 27-5.67 29.7 0 0 15.4 13.4 19.3 19.7l7.71 25.6s-4.54 22.7-4.08 26.8l-7.94 23.4 16.1 24s20.6 5.44 24.7 8.85l2.27 27.2s12.5 19.3 17.9 19.5c0 0 42.2-31.1 48.5-32.4 0 0-8.17-17.2-7.71-19.1 0.454-1.81-2.27-22.7-3.86-25l-0.227-24.7-6.12-20.9 2.04-25.6s15-25 17.9-34.5c0 0 5.22-12.7 21.1-23.1l18.8 5.67 18.6-4.99s17.2 27.4 18.8 34.7c1.59 7.26-1.13 46.3-1.13 46.3l-13.6 26.5 8.17 26.5 21.8 19.5s5.22 45.1 9.53 53.1l28.4-9.3 34.9-2.04 25.9-36.7 6.12-25.4-4.08-22.7-12-21.1 2.04-25.4-1.59-25s3.4-15.7 5.9-18.4c2.5-2.72 23.4-12.7 23.4-12.7l31.8 0.681 21.8-1.59 22.5 12.9v26.1l-8.39 21.3 11.8 22.9-3.63 27.4s19.7 21.3 24.5 40.6l-6.8 20.9 3.63 27.9 59.7 14.5 67.4-4.08-3.4-22.5s-22.7-37.7-22.7-40.4v-2.72l-1.81-28.4 10.2-10.4-2.04-60.6 34.9-25.6s107-11.1 128-6.58c0 0-6.35 35.8-6.58 41.3-0.226 5.44 12.9 62.8 12.9 62.8s-18.4 27-24 43.6l8.39 27-5.67 27.2 26.5 1.81 31.3-10.7 55-3.75 30-46 22.2-22.5s35 7.75 44.5 11 45.5 28.2 45.5 28.2l-4.25 40.5s-37.2 51.5-42 63.5l-23.5 73.7-12.5 21.2-2.5 29.7 11.5 26.2s-12.2 15.2-15.5 23.2c-3.25 8 2.25 23.7 2.25 23.7s-18.7 16.2-20.7 27.5c-2 11.2 4.75 34 4.75 34l21 19.5s-0.75 63 2.75 77.7l-19.5 39s-34.5 47.5-43 54.7c0 0-7.5 31-8.25 41.7s-5.25 30.5-5.25 30.5 7.75 27.2 8 36c0.25 8.75-2.25 42.7 2.25 54.7s6.25 50.5 6.25 50.5l-10 31.2 15.7 69.7-9.25 35.2s-23.7 17.5-31.2 25-20.5 24.2-20.5 24.2-46 30-55.7 44l-8.75 33.5-28.2 32.2-1 6s-16.7 17.2-20.5 30.2c-3.75 13-8.75 21-8.75 21l-28.2 27.5s-28.5 44-33.2 57l-2.75 33.5s-29 24.7-35.2 31.7c-6.25 7-22 28.5-22 28.5l-34 16.7-35.7 6 5 39.5s-10 30.5-20.5 47.5-31 59.5-31 59.5l13.2 33.7 0.25 39.5 20.2 36 3.75 33.2 16.7 28s20.8 72.7 34.2 78.4c13.3 5.66 99.6 23.3 99.6 23.3s26 17.7 26 58c0 0 75.6 70 112 90.6 0 0 6.08 41.4 16.7 45.7 18.3 7.33 12.2 21.7 8.33 42.3-1 5.33-4 13.3-4 13.3l-20.3 15.3-5.66 25.7-16.3 20.7v21.7s-5.33 21.7-20.3 48l10.7 23.3-2 25.3 19 46.7-9 51.3 37.3-15.3s21.3 60.6 20.7 67.6c-0.666 7-15.3 66-15.3 66s68.6 112 68.6 120-66.3 89.6-66.3 89.6-4.66 33.7-6.66 36.7-40.7 30.3-40.7 30.3-46.3 1.67-50.6 3.33l-4.33 1.67s-65.3 27.3-86.3 29l-48 48.6-32.7 57-103 85.6-49.7-16-152 23.7-51.3 24.3-52-1.33-44 22.3-55.6 10.7s-82-41.3-87.3-45.3c-5.33-4-54.8-50.2-74.5-144-9.5-45.5-18-78-18-78l-3.5-49.5 101-84 5-31.5 39-21 32.5-49s11.3-19.3-12.7-26.3-106-52-184-59.6l-63.3 26.3-128-17-63.6 18.3-67.3-14.7-67.6 11.7-48.6 38.7-52.6-47.3v-38.3l-30.7-64.6-31.3-17-19-31.3-34-15s-62.3 29.7-69 29.3c0 0-39.3-7-74.3 7.33l-21-18.7-26-4.33-24 13.7-16.3 25.3s5.67 23 3.67 29.7l-25 48-48 25-17.3 25.7-5.33 22.3s-29.3 37.7-39.3 40c0 0-16.7 0.334-27 5 0 0-24.3 17.3-28 16.3l-17.7 2.33-17.3 24.7-25.3 9.33-34.3-7-32 15-28.3-14-39.7-3.66s-33 11.7-45.7 14.7-21.7 7.67-24.3 9.33c-2.67 1.67-50 16.7-50 16.7l-32.3 4.67-33.3-4-30.7 8.66-66.6-2.67s-48.6 35-88.6 44.7c0 0-7.33-39.3-16.3-52l-25-11.7-13.3-28.3s-43.3-41.7-47.3-61c0 0-44.3-24.3-56-43.7l-10-9.33-1.33-30-13-23.7-17-18.3-6.66-26.3-24.7-13.7-14-23.7 11.7-48 34.3-39.3v-52.6s21-20.3 35.7-50.3 37-87 37-87-5-35.3-4-49c0 0-21-47.7-20.3-51 0.667-3.33-1.33-56-1.33-56l37.7-95 65.6-53 49.3-56 28.7-8.66 23-69.6s-32.7-54-38-76c-5.33-22-5.33-65.3-5.33-65.3l31-38.8s7-114 6-118-20.7-21-23.7-29.3c-3-8.33-15-29.3-15-29.3l-49.6-37.7s-37 1.67-42-9-7.66-11.3-7.66-11.3l0.667-44.3s-43.3-90-42.7-101c0.667-11.3 16.3-49.7 15-62.3-1.33-12.7-44-88-44-88l-10.3-33.7-0.667-34.7-19.3-39-17-15.3-10.7-33 0.333-34.7-22.3-24-33.7-12-14.3-31.3-22.3-23.7 16.3-28.7v-35.3l5.67-30.7v-25.3l9-37.3-6-36-27.3-20-10.7-33.7s2-23.7 0-40.7-1.33-28.3-1.33-28.3l6.33-27.7 20.7-24v-36l11-28.3s-4.33-31.7-2.33-38l72.3-19 45.3 9.33s27.7 1.67 52-1.67c24.3-3.33 45.3-9 45.3-9l31.7-37.3 95-17 30.7 38.3 39 27.7 50.3 1.33 38.7 31.3 24.3 10.7 62.6 20.3 48-8.66 0.333-9.33-22.7 4s-14-11.3-22.3-14c-8.33-2.67-13.7-5.33-13.7-5.33l16-13 16.3-26s22-18.7 31.3-20c9.33-1.33 22.7-8 22.7-8 13.3-5 27.3-48 27.3-48l75.3-49.7 19.3-21 7.33-28.7 15.7-23.3 20-58.3 51.6-40 24-22.3 31-5s84 34.3 138 33.7l7.66 17.7 21.3 13 12.3 18.7 66.6 25.3 16.3 27.7s-17 52.3-33 73l0.667 42 17 37-22 35-35.3 20-28.3 73.6 13.3 10 2 8.33 12.7 8.33 5 41.7 33-5s36.3 0 45-3.33c8.66-3.33 29-7 29-7s19-22 31.3-25 41.3-16.3 62.6-14.7l22 8.66 19-15.7 15.3-7.66 21.7-31s55-53.6 78.3-64.3 73.2-28.2 90.6-44.3z"/>
			<rect ng-if="!VM.Data.Layer.cLand" id="rect4137" style="stroke-linejoin:round;stroke:#000;stroke-width:1.98;stroke-miterlimit:10;fill:none" height="5880" width="5880" stroke-miterlimit="10" y="0" x="0"/>
		</clipPath>
		<linearGradient id="G1">
			<stop style="stop-color:#ffff00;stop-opacity:1;" offset="0" id="stop4144" />
			<stop style="stop-color:#ffff00;stop-opacity:0;" offset="1" id="stop4146" />
		</linearGradient>
		<linearGradient xlink:href="#G1" id="G2" x1="16" y1="149" x2="85" y2="11" gradientUnits="userSpaceOnUse" gradientTransform="translate(-47,-104)" />
		<path style="fill-opacity:1;stroke:#000000;stroke-width:2;stroke-linecap:round;stroke-miterlimit:1;stroke-dasharray:none;stroke-opacity:1" d="M -1.937828e-6,-39.700318 -26.281252,-13.419068 l 0.21875,0.21875 -0.25,0 0,46.625 52.625,0 0,-46.625 -0.25,0 0.21875,-0.21875 z" id="Village" />
		<path style="fill-opacity:1;stroke:#000000;stroke-width:2;stroke-linecap:round;stroke-miterlimit:1;stroke-dasharray:none;stroke-opacity:1" d="M 25.8125 -53.09375 L 25.8125 -13.875 L 0 -39.6875 L -26.28125 -13.40625 L -26.0625 -13.1875 L -26.3125 -13.1875 L -26.3125 31.4375 L 25.8125 31.4375 L 26.3125 31.4375 L 65.1875 31.4375 L 65.1875 -53.09375 L 57.3125 -53.09375 L 57.3125 -47.09375 L 49.4375 -47.09375 L 49.4375 -53.09375 L 41.5625 -53.09375 L 41.5625 -47.09375 L 33.6875 -47.09375 L 33.6875 -53.09375 L 25.8125 -53.09375 z " id="Ville" />
		<path style="fill-opacity:1;stroke:#000000;stroke-width:2;stroke-linecap:round;stroke-miterlimit:1;stroke-dasharray:none;stroke-opacity:1" d="m -65.1875,-53.09375 0,84.53125 38.875,0 0.5,0 51.625,0 0.5,0 38.875,0 0,-84.53125 -7.875,0 0,6 -7.875,0 0,-6 -7.875,0 0,6 -7.875,0 0,-6 -7.875,0 0,39.21875 L 0,-39.6875 l -25.8125,25.8125 0,-39.21875 -7.875,0 0,6 -7.875,0 0,-6 -7.875,0 0,6 -7.875,0 0,-6 -7.875,0 z" id="Grande-Ville" />
		<path style="fill-opacity:1;stroke:#000000;stroke-width:2;stroke-linecap:round;stroke-miterlimit:1;stroke-dasharray:none;stroke-opacity:1" d="m -65.1875,-53.09375 0,84.53125 38.875,0 0.5,0 51.625,0 0.5,0 38.875,0 0,-84.53125 -7.875,0 0,6 -7.875,0 0,-6 -7.875,0 0,6 -7.875,0 0,-6 -7.875,0 0,39.21875 L 0,-39.6875 l -25.8125,25.8125 0,-39.21875 -7.875,0 0,6 -7.875,0 0,-6 -7.875,0 0,6 -7.875,0 0,-6 -7.875,0 z" id="Capitale" />
		<filter id="f4" x="0" y="0" width="200%" height="200%">
			<feOffset result="offOut" in="SourceGraphic" dx="20" dy="20" />
			<feColorMatrix result="matrixOut" in="offOut" type="matrix" values="0.2 0 0 0 0 0 0.2 0 0 0 0 0 0.2 0 0 0 0 0 1 0" />
			<feGaussianBlur result="blurOut" in="matrixOut" stdDeviation="10" />
			<feBlend in="SourceGraphic" in2="blurOut" mode="normal" />
		</filter>
	</defs>
	<image ng-show="VM.Data.Layer.iFond" id="image4188" width="5880" xlink:href="img/fondcarte.jpg" height="5880" y="0" x="0" preserveAspectRatio="none"/>
	<g clip-path="url(#land)">
		<g ng-show="VM.Data.Layer.gHex" svg-grid=""></g>
	</g>
	<g ng-show="VM.Data.Layer.gCities">
		<use ng-repeat="(key,city) in VM.Data.Map.Cities" class="C" ng-href="{{ '#'+city.Type }}" xlink:href="" ng-attr-x="{{VM.Data.FindXY(city.H,true)}}" ng-attr-y="{{VM.Data.FindXY(city.H,false)}}" id="key" ng-class="{nation:(VM.Data.Map.Focus.Nation==city.Nation),city:(VM.Data.Map.Focus.City==key)}" style="fill:url(#G2);"  filter="url(#f4)" ng-click="VM.Data.OverCity(key)" ng-mouseover="VM.Data.OverInfoCity(key)"/>
	</g>
</svg>